<svg xmlns="http://www.w3.org/2000/svg" xmlns:xlink="http://www.w3.org/1999/xlink" version="1.1" x="0px" y="0px"
    viewBox="0 0 100 125" enable-background="new 0 0 100 100" xml:space="preserve" fill="#FFBC5E">
    <g>
        <path
            d="M72.025,20.831c-0.118-0.057-0.242-0.105-0.377-0.13c-0.429-0.08-0.848-0.125-1.261-0.155   C67.835,11.522,59.523,5.091,50.186,5.091c-11.593,0-21.024,9.557-21.024,21.304c0,0.484,0.02,0.972,0.056,1.465   c-0.595-0.115-1.223-0.169-1.881-0.134c-0.009,0-0.019-0.001-0.028-0.001c-0.019,0-0.037,0.003-0.056,0.003   c-0.018,0.001-0.035,0-0.052,0.001c-0.004,0-0.009,0.002-0.013,0.002c-6.418,0.067-11.62,5.372-11.62,11.89   c0,6.561,5.267,11.898,11.741,11.898h13.738c0.113,0,0.222-0.015,0.328-0.038c6.917-0.245,10.877-4.713,10.877-12.368v-4.288   l1.182,0.845c0.264,0.189,0.568,0.28,0.871,0.28c0.468,0,0.929-0.218,1.221-0.627c0.482-0.674,0.326-1.611-0.348-2.093l-3.49-2.496   c-0.001,0-0.002-0.001-0.003-0.001c-0.081-0.058-0.166-0.107-0.256-0.146c-0.044-0.02-0.091-0.031-0.137-0.046   c-0.047-0.016-0.093-0.036-0.141-0.047c-0.046-0.01-0.094-0.012-0.14-0.019c-0.05-0.006-0.1-0.017-0.15-0.019   c-0.027,0-0.054,0.004-0.082,0.005c-0.211,0.004-0.42,0.055-0.619,0.152c-0.044,0.021-0.09,0.039-0.132,0.065   c-0.002,0.001-0.004,0.002-0.006,0.003l-3.63,2.263c-0.703,0.438-0.917,1.363-0.479,2.066c0.284,0.456,0.774,0.707,1.274,0.707   c0.271,0,0.545-0.073,0.792-0.227l1.273-0.794v4.417c0,6.232-2.851,9.392-8.473,9.392c-0.051,0-0.1,0.01-0.15,0.015h-13.32   c-4.82,0-8.741-3.992-8.741-8.898c0-4.906,3.921-8.896,8.741-8.896c0.708,0,1.43,0.106,2.158,0.303   c1.753,0.621,2.99,1.944,3.021,1.978c0.296,0.327,0.703,0.493,1.112,0.493c0.357,0,0.716-0.127,1.002-0.385   c0.616-0.554,0.667-1.502,0.112-2.118c-0.067-0.075-0.927-1.013-2.319-1.868c-0.145-0.947-0.233-1.854-0.233-2.733   c0-10.093,8.086-18.304,18.024-18.304c7.77,0,14.707,5.209,17.108,12.605c-2.806,0.483-4.75,1.723-4.867,1.799   c-0.693,0.451-0.889,1.375-0.44,2.069c0.286,0.444,0.769,0.686,1.262,0.686c0.277,0,0.559-0.077,0.809-0.237   c0.026-0.016,2.066-1.295,4.787-1.481l0.361,0.003c6.723,0.062,12.191,5.666,12.191,12.49c0,6.729-8.335,12.494-15.158,12.494   c-0.404,0-2.158,0.008-3.896,0.015c-1.698,0.007-3.38,0.015-3.76,0.015c-0.028,0-0.056,0.007-0.084,0.008   c-10.094,0.171-10.527,6.906-10.545,17.167l-1.398-1c-0.675-0.483-1.611-0.326-2.093,0.348c-0.482,0.674-0.326,1.61,0.348,2.092   l3.49,2.495c0.02,0.015,0.043,0.019,0.063,0.032c0.088,0.056,0.179,0.101,0.275,0.138c0.041,0.016,0.08,0.035,0.121,0.047   c0.13,0.037,0.263,0.061,0.398,0.062c0.004,0,0.008,0.002,0.013,0.002c0,0,0.001,0,0.001,0s0.001,0,0.001,0   c0.005,0,0.011-0.002,0.016-0.002c0.122-0.002,0.242-0.02,0.359-0.05c0.04-0.011,0.078-0.028,0.117-0.043   c0.084-0.029,0.167-0.063,0.245-0.107c0.018-0.01,0.037-0.014,0.055-0.024l3.628-2.261c0.703-0.438,0.918-1.363,0.48-2.066   c-0.44-0.705-1.366-0.917-2.066-0.48l-1.051,0.654c0.064-11.481,0.981-14.011,7.934-14.011c0.002,0,0.004-0.001,0.006-0.001   c0.655-0.002,2.046-0.007,3.46-0.014c1.731-0.008,3.479-0.016,3.882-0.016c10.227,0,18.158-8.328,18.158-15.493   C84.396,28.529,79.056,22.228,72.025,20.831z" />
        <path
            d="M70.733,86.07l-0.056-22.213c0-2.426-1.822-4.325-4.154-4.325l-9.551,0.012c-0.829,0.001-1.5,0.673-1.499,1.501   s0.672,1.499,1.5,1.499h0.001l9.554-0.012c0.746,0,1.149,0.683,1.149,1.329l0.056,22.213l-36.923,0.043l0.014-22.271   c0.001-0.701,0.591-1.271,1.316-1.271l9.271-0.008c0.828-0.001,1.499-0.673,1.499-1.501s-0.672-1.499-1.5-1.499   c0,0-0.001,0-0.001,0l-9.27,0.008c-2.375,0-4.31,1.914-4.314,4.268l-0.014,22.279l-4.226,0.005l-0.003,4.616   c-0.002,2.271,1.862,4.12,4.155,4.125h0.004l43.114-0.025c2.264,0,4.105-1.833,4.105-4.104l-0.058-4.672L70.733,86.07z    M70.841,91.842l-43.099,0.025c-0.641-0.002-1.161-0.505-1.161-1.122l0.001-1.623l1.226-0.001v0.002l42.933,0.017V89.07   l1.198-0.001l0.021,1.687C71.96,91.365,71.475,91.842,70.841,91.842z" />
    </g>
</svg>