<svg xmlns="http://www.w3.org/2000/svg" viewBox="0 0 100 125" fill="#FFBC5E" x="0px" y="0px">
    <path
        d="M59.4439 88.089C60.3579 90.9669 61.833 93.5952 63.74 95.8473C59.2455 97.4011 54.4157 98.2459 49.3847 98.2459C44.1869 98.2459 39.2037 97.3441 34.5831 95.6903C36.4618 93.4308 37.9093 90.8015 38.7983 87.927C42.139 88.9826 45.6963 89.5517 49.3847 89.5517C52.8797 89.5517 56.2569 89.0407 59.4439 88.089Z" />
    <path
        d="M5.698 54.8183C5.698 57.0254 5.86352 59.1933 6.1827 61.3106C8.7559 59.9254 11.6274 59.0182 14.6755 58.7089C14.5322 57.4312 14.4587 56.1331 14.4587 54.8183C14.4587 43.3544 20.0442 33.1908 28.6467 26.868C27.3693 24.0861 26.6411 21.0028 26.5993 17.7578C14.0578 25.3938 5.698 39.1383 5.698 54.8183Z" />
    <path
        d="M92.8774 54.8183C92.8774 57.0254 92.7119 59.1933 92.3927 61.3106C89.8195 59.9254 86.948 59.0182 83.9 58.7089C84.0432 57.4312 84.1167 56.1331 84.1167 54.8183C84.1167 43.3544 78.5313 33.1908 69.9287 26.868C71.2061 24.0861 71.9343 21.0028 71.9761 17.7578C84.5176 25.3938 92.8774 39.1383 92.8774 54.8183Z" />
    <path fill-rule="evenodd" clip-rule="evenodd"
        d="M98.0957 81.2557C98.0957 90.5375 90.5262 98.0718 81.1766 98.0718C71.827 98.0718 64.2576 90.5375 64.2576 81.2557C64.2576 71.9738 71.827 64.4396 81.1766 64.4396C90.5262 64.4396 98.0957 71.9738 98.0957 81.2557ZM81.1766 91.4511C86.8313 91.4511 91.4252 86.8919 91.4252 81.2557C91.4252 75.6195 86.8313 71.0603 81.1766 71.0603C75.5219 71.0603 70.9281 75.6195 70.9281 81.2557C70.9281 86.8919 75.5219 91.4511 81.1766 91.4511Z" />
    <path fill-rule="evenodd" clip-rule="evenodd"
        d="M33.9339 81.2557C33.9339 90.5375 26.3644 98.0718 17.0148 98.0718C7.66519 98.0718 0.0957031 90.5375 0.0957031 81.2557C0.0957031 71.9738 7.66519 64.4396 17.0148 64.4396C26.3644 64.4396 33.9339 71.9738 33.9339 81.2557ZM16.8283 91.4511C22.4829 91.4511 27.0768 86.8919 27.0768 81.2557C27.0768 75.6195 22.4829 71.0603 16.8283 71.0603C11.1736 71.0603 6.5797 75.6195 6.5797 81.2557C6.5797 86.8919 11.1736 91.4511 16.8283 91.4511Z" />
    <path fill-rule="evenodd" clip-rule="evenodd"
        d="M66.3038 17.4626C66.3038 26.7444 58.7343 34.2787 49.3847 34.2787C40.0351 34.2787 32.4656 26.7444 32.4656 17.4626C32.4656 8.18073 40.0351 0.646484 49.3847 0.646484C58.7343 0.646484 66.3038 8.18073 66.3038 17.4626ZM49.3847 27.5251C55.0394 27.5251 59.6333 22.9659 59.6333 17.3297C59.6333 11.6935 55.0394 7.1343 49.3847 7.1343C43.73 7.1343 39.1362 11.6935 39.1362 17.3297C39.1362 22.9659 43.73 27.5251 49.3847 27.5251Z" />
</svg>