<svg version="1.1" id="Layer_1" xmlns="http://www.w3.org/2000/svg"
	xmlns:xlink="http://www.w3.org/1999/xlink" x="0px" y="0px"
	width="100%" viewBox="0 0 1156 308" enable-background="new 0 0 1156 308" xml:space="preserve">
<path fill="none" opacity="1.000000" stroke="none" 
	d="
M1157.000000,19.000011 
	C1157.000000,115.614769 1157.000000,212.229538 1157.000000,309.000000 
	C983.311951,309.000000 809.623779,309.000000 635.522949,308.678253 
	C634.777832,307.833618 634.445435,307.310699 633.985352,306.476685 
	C612.417419,276.043945 590.977112,245.922333 569.385498,215.588242 
	C582.168335,203.629456 591.581726,189.779602 598.343018,173.756760 
	C580.015381,165.981033 561.922180,158.304764 543.829102,150.628555 
	C529.980591,181.684906 498.494324,195.183823 469.333618,188.645233 
	C440.941895,182.279083 419.158875,155.534225 419.217377,125.865395 
	C419.275360,96.459785 439.253540,70.808723 467.599884,63.115768 
	C481.940948,59.223721 496.030945,60.498089 509.472504,66.283936 
	C526.909546,73.789642 538.658752,87.085846 545.549927,104.968117 
	C564.280212,98.598404 582.757324,92.314781 601.343079,85.994225 
	C600.837341,84.339645 600.618225,83.369705 600.251526,82.459206 
	C582.022217,37.191730 548.781311,10.697227 500.657471,2.763244 
	C499.700775,2.605515 498.882721,1.606509 498.000000,0.999999 
	C717.666687,1.000000 937.333313,1.000000 1157.000000,1.000000 
	C1157.000000,6.066453 1157.000000,11.063184 1156.530396,16.519823 
	C1137.243896,16.892687 1118.426514,16.731926 1099.611084,16.864695 
	C1098.174072,16.874836 1096.194824,18.662489 1095.407471,20.128658 
	C1086.230225,37.219204 1077.173340,54.375263 1068.205078,71.576813 
	C1057.684570,91.755646 1047.289185,111.999649 1036.821045,132.205795 
	C1035.637939,134.489319 1034.335571,136.710938 1032.766113,139.542969 
	C1031.572144,137.125641 1030.802490,135.485825 1029.963989,133.882050 
	C1010.132874,95.950470 990.255859,58.042763 970.539429,20.051741 
	C969.151978,17.378361 967.621216,16.635485 964.812805,16.653687 
	C947.654358,16.764881 930.494873,16.701485 913.335693,16.726589 
	C912.118652,16.728369 910.902039,16.972569 909.101501,17.167112 
	C911.772400,22.238161 914.180969,26.751652 916.536255,31.292833 
	C931.444397,60.037277 946.281616,88.818634 961.257996,117.527458 
	C975.306824,144.458313 989.522949,171.301895 1003.576782,198.230148 
	C1004.600403,200.191605 1005.427917,202.522858 1005.454895,204.693253 
	C1005.620300,218.018555 1005.518494,231.347092 1005.535583,244.674500 
	C1005.537842,246.437744 1005.710266,248.200745 1005.805786,249.999084 
	C1024.043823,249.999084 1041.753662,249.999084 1059.896484,249.999084 
	C1059.896484,238.472824 1060.467285,227.304398 1059.722900,216.224319 
	C1059.082886,206.699051 1061.823242,198.556290 1066.158081,190.411270 
	C1078.039795,168.085846 1089.602661,145.591019 1101.383667,123.211617 
	C1108.724976,109.265915 1116.375610,95.481979 1123.632324,81.493088 
	C1134.241455,61.041355 1144.613525,40.466591 1155.146362,19.974993 
	C1155.407593,19.466677 1156.366455,19.316982 1157.000000,19.000011 
M699.499939,71.856216 
	C709.921570,71.856216 720.343140,71.856216 731.203491,71.856216 
	C731.203491,131.675812 731.203491,190.754608 731.203491,249.955383 
	C749.675598,249.955383 767.688354,249.955383 785.734192,249.955383 
	C785.734192,172.096100 785.734192,94.681953 785.734192,17.024916 
	C729.440002,17.024916 673.403931,17.024916 617.243103,17.024916 
	C617.243103,35.381897 617.243103,53.421143 617.243103,71.856216 
	C644.573669,71.856216 671.536743,71.856216 699.499939,71.856216 
M813.004517,127.500000 
	C813.004517,168.274231 813.004517,209.048462 813.004517,250.053680 
	C869.536194,250.053680 925.552856,250.053680 981.601440,250.053680 
	C981.601440,231.829666 981.601440,213.956635 981.601440,195.589325 
	C943.470093,195.589325 905.734314,195.589325 867.450378,195.589325 
	C867.450378,135.711380 867.450378,76.330139 867.450378,16.953835 
	C849.119629,16.953835 831.345032,16.953835 813.004517,16.953835 
	C813.004517,53.631149 813.004517,90.065575 813.004517,127.500000 
M483.499969,113.128120 
	C492.235474,113.128120 500.971008,113.128120 509.684937,113.128120 
	C509.684937,110.355324 509.684937,108.285782 509.684937,106.092827 
	C492.683685,106.092827 475.991516,106.092827 459.026306,106.092827 
	C459.026306,108.426163 459.026306,110.486130 459.026306,113.128120 
	C466.984985,113.128120 474.742493,113.128120 483.499969,113.128120 
M468.539429,120.038193 
	C465.424438,120.038193 462.309448,120.038193 459.084412,120.038193 
	C459.084412,122.684860 459.084412,124.737267 459.084412,126.914307 
	C476.146454,126.914307 492.864166,126.914307 509.687622,126.914307 
	C509.687622,124.540886 509.687622,122.485741 509.687622,120.038170 
	C496.096710,120.038170 482.812103,120.038170 468.539429,120.038193 
M464.557983,134.614594 
	C462.782776,134.614594 461.007599,134.614594 459.064758,134.614594 
	C459.064758,137.331161 459.064758,139.385635 459.064758,141.615967 
	C476.125519,141.615967 492.856293,141.615967 509.706055,141.615967 
	C509.706055,139.239685 509.706055,137.169250 509.706055,134.614365 
	C494.790283,134.614365 480.166992,134.614365 464.557983,134.614594 
M499.473267,148.838501 
	C486.076447,148.838501 472.679657,148.838501 459.018005,148.838501 
	C459.018005,151.440231 459.018005,153.493942 459.018005,155.742325 
	C476.081360,155.742325 492.891998,155.742325 509.665802,155.742325 
	C509.665802,153.330780 509.665802,151.267776 509.665802,148.838501 
	C506.381958,148.838501 503.421478,148.838501 499.473267,148.838501 
M1101.412354,254.190582 
	C1112.791382,253.850937 1117.871094,246.041992 1118.353027,238.113464 
	C1118.961792,228.095093 1110.746216,220.151169 1100.990356,220.344162 
	C1090.362671,220.554367 1084.593506,227.259857 1084.192017,237.187332 
	C1083.814819,246.515396 1091.317871,253.907928 1101.412354,254.190582 
M503.418091,91.727806 
	C494.010315,91.727806 484.602570,91.727806 475.205841,91.727806 
	C475.205841,94.494972 475.205841,96.542847 475.205841,98.611649 
	C486.950439,98.611649 498.323486,98.611649 509.652893,98.611649 
	C509.652893,96.196579 509.652893,94.135391 509.652893,91.728477 
	C507.672974,91.728477 506.032410,91.728477 503.418091,91.727806 
z"/>
<path fill="none" opacity="1.000000" stroke="none" 
	d="
M563.000000,309.000000 
	C375.666656,309.000000 188.333313,309.000000 1.000000,309.000000 
	C1.000000,289.573578 1.000000,270.253784 1.454173,250.593445 
	C19.817514,250.252914 37.726685,250.252914 56.100502,250.252914 
	C56.100502,220.542450 56.100502,191.467026 56.100502,161.980728 
	C58.359291,161.980728 60.159863,161.980713 61.960434,161.980713 
	C88.454323,161.980667 114.948387,161.935013 141.441833,162.043320 
	C144.460983,162.055649 146.116028,161.350845 147.466644,158.375687 
	C152.201874,147.944839 157.392822,137.721909 162.306427,127.370529 
	C164.985092,121.727440 167.453613,115.984612 170.341019,109.566292 
	C131.845428,109.566292 94.097061,109.566292 56.332153,109.566292 
	C56.332153,96.625511 56.332153,84.226532 56.332153,71.372292 
	C58.635540,71.372292 60.605644,71.372292 62.575748,71.372292 
	C101.900009,71.372269 141.225128,71.248573 180.547455,71.524010 
	C185.636292,71.559647 187.676407,69.264709 189.770447,65.459282 
	C195.827332,54.452225 202.138550,43.585117 208.350189,32.663216 
	C211.247162,27.569517 214.144760,22.476177 217.423920,16.711380 
	C214.634308,16.711380 212.817368,16.711380 211.000427,16.711380 
	C143.016113,16.711395 75.031807,16.710072 7.047494,16.719332 
	C5.385151,16.719557 3.722825,16.837379 1.890139,16.732407 
	C1.360088,16.529154 1.120158,16.341002 1.000000,16.000000 
	C1.000000,11.004488 1.000000,6.008975 1.000000,1.006732 
	C157.022018,1.000000 313.044037,1.000000 469.856140,1.320086 
	C469.102386,2.094801 467.587036,2.737776 466.010529,2.976148 
	C436.896820,7.378144 412.187683,20.415607 392.434052,42.054680 
	C373.656342,62.624622 362.923981,87.047714 360.539185,115.020302 
	C359.090637,132.011292 360.899933,148.602859 366.258240,164.711884 
	C372.643707,183.908844 383.182068,200.579529 397.752502,214.735443 
	C406.491608,223.225922 416.289886,230.301468 426.909454,235.997604 
	C434.408691,240.020065 442.613953,242.938065 450.783630,245.433884 
	C457.718536,247.552475 465.034851,249.399521 472.215668,249.529510 
	C486.509277,249.788269 500.918732,249.897446 514.928101,245.882751 
	C516.041077,245.563797 518.144165,246.323074 518.835266,247.273438 
	C526.382385,257.651367 533.706055,268.191284 541.158203,278.638855 
	C548.397827,288.788483 555.716187,298.881897 563.000000,309.000000 
M268.830383,51.664108 
	C262.848755,40.195892 256.867096,28.727678 250.505295,16.530596 
	C208.998672,96.140816 167.983063,174.809250 126.597839,254.186646 
	C146.431122,254.186646 165.375641,254.227783 184.318741,254.083252 
	C185.440704,254.074692 186.999908,252.819977 187.597595,251.729630 
	C193.423599,241.101303 199.191559,230.438156 204.776016,219.681061 
	C215.139923,199.717484 225.342072,179.670013 235.667770,159.686493 
	C240.476013,150.380966 245.415649,141.143341 250.578339,131.338165 
	C272.221680,172.855347 293.524109,213.718582 314.539642,254.031479 
	C334.504272,254.031479 354.060028,254.031479 374.432617,254.031479 
	C339.083099,186.323730 304.108643,119.334373 268.830383,51.664108 
z"/>
<path fill="#E7344A" opacity="1.000000" stroke="none" 
	d="
M563.468628,309.000000 
	C555.716187,298.881897 548.397827,288.788483 541.158203,278.638855 
	C533.706055,268.191284 526.382385,257.651367 518.835266,247.273438 
	C518.144165,246.323074 516.041077,245.563797 514.928101,245.882751 
	C500.918732,249.897446 486.509277,249.788269 472.215668,249.529510 
	C465.034851,249.399521 457.718536,247.552475 450.783630,245.433884 
	C442.613953,242.938065 434.408691,240.020065 426.909454,235.997604 
	C416.289886,230.301468 406.491608,223.225922 397.752502,214.735443 
	C383.182068,200.579529 372.643707,183.908844 366.258240,164.711884 
	C360.899933,148.602859 359.090637,132.011292 360.539185,115.020302 
	C362.923981,87.047714 373.656342,62.624622 392.434052,42.054680 
	C412.187683,20.415607 436.896820,7.378144 466.010529,2.976148 
	C467.587036,2.737776 469.102386,2.094801 470.323120,1.320086 
	C479.020905,1.000000 488.041779,1.000000 497.531342,0.999999 
	C498.882721,1.606509 499.700775,2.605515 500.657471,2.763244 
	C548.781311,10.697227 582.022217,37.191730 600.251526,82.459206 
	C600.618225,83.369705 600.837341,84.339645 601.343079,85.994225 
	C582.757324,92.314781 564.280212,98.598404 545.549927,104.968117 
	C538.658752,87.085846 526.909546,73.789642 509.472504,66.283936 
	C496.030945,60.498089 481.940948,59.223721 467.599884,63.115768 
	C439.253540,70.808723 419.275360,96.459785 419.217377,125.865395 
	C419.158875,155.534225 440.941895,182.279083 469.333618,188.645233 
	C498.494324,195.183823 529.980591,181.684906 543.829102,150.628555 
	C561.922180,158.304764 580.015381,165.981033 598.343018,173.756760 
	C591.581726,189.779602 582.168335,203.629456 569.385498,215.588242 
	C590.977112,245.922333 612.417419,276.043945 633.951294,306.844788 
	C634.029907,308.016022 634.014954,308.507996 634.000000,309.000000 
	C610.645752,309.000000 587.291565,309.000000 563.468628,309.000000 
z"/>
<path fill="#E8344A" opacity="1.000000" stroke="none" 
	d="
M2.060490,16.900352 
	C3.722825,16.837379 5.385151,16.719557 7.047494,16.719332 
	C75.031807,16.710072 143.016113,16.711395 211.000427,16.711380 
	C212.817368,16.711380 214.634308,16.711380 217.423920,16.711380 
	C214.144760,22.476177 211.247162,27.569517 208.350189,32.663216 
	C202.138550,43.585117 195.827332,54.452225 189.770447,65.459282 
	C187.676407,69.264709 185.636292,71.559647 180.547455,71.524010 
	C141.225128,71.248573 101.900009,71.372269 62.575748,71.372292 
	C60.605644,71.372292 58.635540,71.372292 56.332153,71.372292 
	C56.332153,84.226532 56.332153,96.625511 56.332153,109.566292 
	C94.097061,109.566292 131.845428,109.566292 170.341019,109.566292 
	C167.453613,115.984612 164.985092,121.727440 162.306427,127.370529 
	C157.392822,137.721909 152.201874,147.944839 147.466644,158.375687 
	C146.116028,161.350845 144.460983,162.055649 141.441833,162.043320 
	C114.948387,161.935013 88.454323,161.980667 61.960434,161.980713 
	C60.159863,161.980713 58.359291,161.980728 56.100502,161.980728 
	C56.100502,191.467026 56.100502,220.542450 56.100502,250.252914 
	C37.726685,250.252914 19.817514,250.252914 1.454173,250.126465 
	C1.000000,172.979111 1.000000,95.958206 1.205825,18.314835 
	C1.627930,17.428352 1.844210,17.164352 2.060490,16.900352 
z"/>
<path fill="#E7344A" opacity="1.000000" stroke="none" 
	d="
M1157.000000,18.666677 
	C1156.366455,19.316982 1155.407593,19.466677 1155.146362,19.974993 
	C1144.613525,40.466591 1134.241455,61.041355 1123.632324,81.493088 
	C1116.375610,95.481979 1108.724976,109.265915 1101.383667,123.211617 
	C1089.602661,145.591019 1078.039795,168.085846 1066.158081,190.411270 
	C1061.823242,198.556290 1059.082886,206.699051 1059.722900,216.224319 
	C1060.467285,227.304398 1059.896484,238.472824 1059.896484,249.999084 
	C1041.753662,249.999084 1024.043823,249.999084 1005.805786,249.999084 
	C1005.710266,248.200745 1005.537842,246.437744 1005.535583,244.674500 
	C1005.518494,231.347092 1005.620300,218.018555 1005.454895,204.693253 
	C1005.427917,202.522858 1004.600403,200.191605 1003.576782,198.230148 
	C989.522949,171.301895 975.306824,144.458313 961.257996,117.527458 
	C946.281616,88.818634 931.444397,60.037277 916.536255,31.292833 
	C914.180969,26.751652 911.772400,22.238161 909.101501,17.167112 
	C910.902039,16.972569 912.118652,16.728369 913.335693,16.726589 
	C930.494873,16.701485 947.654358,16.764881 964.812805,16.653687 
	C967.621216,16.635485 969.151978,17.378361 970.539429,20.051741 
	C990.255859,58.042763 1010.132874,95.950470 1029.963989,133.882050 
	C1030.802490,135.485825 1031.572144,137.125641 1032.766113,139.542969 
	C1034.335571,136.710938 1035.637939,134.489319 1036.821045,132.205795 
	C1047.289185,111.999649 1057.684570,91.755646 1068.205078,71.576813 
	C1077.173340,54.375263 1086.230225,37.219204 1095.407471,20.128658 
	C1096.194824,18.662489 1098.174072,16.874836 1099.611084,16.864695 
	C1118.426514,16.731926 1137.243896,16.892687 1156.530396,16.989864 
	C1157.000000,17.444445 1157.000000,17.888889 1157.000000,18.666677 
z"/>
<path fill="#C52E40" opacity="1.000000" stroke="none" 
	d="
M634.250000,309.000000 
	C634.014954,308.507996 634.029907,308.016022 634.078918,307.155914 
	C634.445435,307.310699 634.777832,307.833618 635.055176,308.678253 
	C635.000000,309.000000 634.500000,309.000000 634.250000,309.000000 
z"/>
<path fill="#C92E40" opacity="1.000000" stroke="none" 
	d="
M1.890139,16.732407 
	C1.844210,17.164352 1.627930,17.428352 1.205825,17.846176 
	C1.000000,17.555555 1.000000,17.111113 1.000000,16.333334 
	C1.120158,16.341002 1.360088,16.529154 1.890139,16.732407 
z"/>
<path fill="#E7344A" opacity="1.000000" stroke="none" 
	d="
M698.999878,71.856216 
	C671.536743,71.856216 644.573669,71.856216 617.243103,71.856216 
	C617.243103,53.421143 617.243103,35.381897 617.243103,17.024916 
	C673.403931,17.024916 729.440002,17.024916 785.734192,17.024916 
	C785.734192,94.681953 785.734192,172.096100 785.734192,249.955383 
	C767.688354,249.955383 749.675598,249.955383 731.203491,249.955383 
	C731.203491,190.754608 731.203491,131.675812 731.203491,71.856216 
	C720.343140,71.856216 709.921570,71.856216 698.999878,71.856216 
z"/>
<path fill="#E7344A" opacity="1.000000" stroke="none" 
	d="
M813.004517,127.000000 
	C813.004517,90.065575 813.004517,53.631149 813.004517,16.953835 
	C831.345032,16.953835 849.119629,16.953835 867.450378,16.953835 
	C867.450378,76.330139 867.450378,135.711380 867.450378,195.589325 
	C905.734314,195.589325 943.470093,195.589325 981.601440,195.589325 
	C981.601440,213.956635 981.601440,231.829666 981.601440,250.053680 
	C925.552856,250.053680 869.536194,250.053680 813.004517,250.053680 
	C813.004517,209.048462 813.004517,168.274231 813.004517,127.000000 
z"/>
<path fill="#E8344A" opacity="1.000000" stroke="none" 
	d="
M482.999969,113.128120 
	C474.742493,113.128120 466.984985,113.128120 459.026306,113.128120 
	C459.026306,110.486130 459.026306,108.426163 459.026306,106.092827 
	C475.991516,106.092827 492.683685,106.092827 509.684937,106.092827 
	C509.684937,108.285782 509.684937,110.355324 509.684937,113.128120 
	C500.971008,113.128120 492.235474,113.128120 482.999969,113.128120 
z"/>
<path fill="#E53349" opacity="1.000000" stroke="none" 
	d="
M469.033447,120.038177 
	C482.812103,120.038170 496.096710,120.038170 509.687622,120.038170 
	C509.687622,122.485741 509.687622,124.540886 509.687622,126.914307 
	C492.864166,126.914307 476.146454,126.914307 459.084412,126.914307 
	C459.084412,124.737267 459.084412,122.684860 459.084412,120.038193 
	C462.309448,120.038193 465.424438,120.038193 469.033447,120.038177 
z"/>
<path fill="#E33348" opacity="1.000000" stroke="none" 
	d="
M465.050842,134.614471 
	C480.166992,134.614365 494.790283,134.614365 509.706055,134.614365 
	C509.706055,137.169250 509.706055,139.239685 509.706055,141.615967 
	C492.856293,141.615967 476.125519,141.615967 459.064758,141.615967 
	C459.064758,139.385635 459.064758,137.331161 459.064758,134.614594 
	C461.007599,134.614594 462.782776,134.614594 465.050842,134.614471 
z"/>
<path fill="#E8344A" opacity="1.000000" stroke="none" 
	d="
M499.967133,148.838501 
	C503.421478,148.838501 506.381958,148.838501 509.665802,148.838501 
	C509.665802,151.267776 509.665802,153.330780 509.665802,155.742325 
	C492.891998,155.742325 476.081360,155.742325 459.018005,155.742325 
	C459.018005,153.493942 459.018005,151.440231 459.018005,148.838501 
	C472.679657,148.838501 486.076447,148.838501 499.967133,148.838501 
z"/>
<path fill="#D53044" opacity="1.000000" stroke="none" 
	d="
M1101.055054,254.189972 
	C1091.317871,253.907928 1083.814819,246.515396 1084.192017,237.187332 
	C1084.593506,227.259857 1090.362671,220.554367 1100.990356,220.344162 
	C1110.746216,220.151169 1118.961792,228.095093 1118.353027,238.113464 
	C1117.871094,246.041992 1112.791382,253.850937 1101.055054,254.189972 
M1103.954712,223.067947 
	C1102.791992,223.041122 1101.628052,222.966919 1100.466797,222.995499 
	C1094.729614,223.136658 1089.980713,226.631592 1087.847900,232.567886 
	C1085.794189,238.284164 1087.199219,243.393600 1091.344727,247.678360 
	C1095.258911,251.723999 1101.644287,253.092163 1106.521606,250.564774 
	C1111.914062,247.770370 1115.236694,243.183884 1115.161621,236.896851 
	C1115.078125,229.907608 1111.141479,225.561111 1103.954712,223.067947 
z"/>
<path fill="#E43349" opacity="1.000000" stroke="none" 
	d="
M503.904968,91.728142 
	C506.032410,91.728477 507.672974,91.728477 509.652893,91.728477 
	C509.652893,94.135391 509.652893,96.196579 509.652893,98.611649 
	C498.323486,98.611649 486.950439,98.611649 475.205841,98.611649 
	C475.205841,96.542847 475.205841,94.494972 475.205841,91.727806 
	C484.602570,91.727806 494.010315,91.727806 503.904968,91.728142 
z"/>
<path fill="#E7344A" opacity="1.000000" stroke="none" 
	d="
M268.982300,52.004562 
	C304.108643,119.334373 339.083099,186.323730 374.432617,254.031479 
	C354.060028,254.031479 334.504272,254.031479 314.539642,254.031479 
	C293.524109,213.718582 272.221680,172.855347 250.578339,131.338165 
	C245.415649,141.143341 240.476013,150.380966 235.667770,159.686493 
	C225.342072,179.670013 215.139923,199.717484 204.776016,219.681061 
	C199.191559,230.438156 193.423599,241.101303 187.597595,251.729630 
	C186.999908,252.819977 185.440704,254.074692 184.318741,254.083252 
	C165.375641,254.227783 146.431122,254.186646 126.597839,254.186646 
	C167.983063,174.809250 208.998672,96.140816 250.505295,16.530596 
	C256.867096,28.727678 262.848755,40.195892 268.982300,52.004562 
z"/>
<path fill="#090405" opacity="1.000000" stroke="none" 
	d="
M1104.357666,223.140289 
	C1111.141479,225.561111 1115.078125,229.907608 1115.161621,236.896851 
	C1115.236694,243.183884 1111.914062,247.770370 1106.521606,250.564774 
	C1101.644287,253.092163 1095.258911,251.723999 1091.344727,247.678360 
	C1087.199219,243.393600 1085.794189,238.284164 1087.847900,232.567886 
	C1089.980713,226.631592 1094.729614,223.136658 1100.466797,222.995499 
	C1101.628052,222.966919 1102.791992,223.041122 1104.357666,223.140289 
M1106.318848,228.700821 
	C1102.442993,228.359451 1098.567139,228.018066 1094.108521,227.625351 
	C1094.108521,232.278915 1093.886719,236.090744 1094.195068,239.859192 
	C1094.368896,241.983871 1095.415894,244.037109 1096.069580,246.122543 
	C1096.707397,244.134109 1097.336548,242.142807 1097.992554,240.160370 
	C1098.091431,239.861511 1098.316528,239.604431 1098.555542,239.208389 
	C1101.269043,239.178009 1104.229492,238.431549 1105.138306,242.488785 
	C1105.429321,243.787903 1106.500977,244.912170 1107.215698,246.116425 
	C1107.573608,244.487823 1108.252441,242.845444 1108.183350,241.235153 
	C1108.132202,240.045959 1107.105957,238.898666 1106.397705,237.503128 
	C1109.253052,235.055222 1109.960205,232.206421 1106.318848,228.700821 
z"/>
<path fill="#D43044" opacity="1.000000" stroke="none" 
	d="
M1106.669434,228.908829 
	C1109.960205,232.206421 1109.253052,235.055222 1106.397705,237.503128 
	C1107.105957,238.898666 1108.132202,240.045959 1108.183350,241.235153 
	C1108.252441,242.845444 1107.573608,244.487823 1107.215576,246.116425 
	C1106.500977,244.912170 1105.429321,243.787903 1105.138306,242.488785 
	C1104.229492,238.431549 1101.269043,239.178009 1098.555542,239.208389 
	C1098.316528,239.604431 1098.091431,239.861511 1097.992554,240.160370 
	C1097.336548,242.142807 1096.707397,244.134109 1096.069580,246.122528 
	C1095.415894,244.037109 1094.368896,241.983871 1094.195068,239.859192 
	C1093.886719,236.090744 1094.108521,232.278915 1094.108521,227.625351 
	C1098.567139,228.018066 1102.442993,228.359451 1106.669434,228.908829 
M1102.859009,230.440964 
	C1101.307495,230.440964 1099.755859,230.440964 1098.150879,230.440964 
	C1098.150879,232.730286 1098.150879,234.610886 1098.150879,237.424850 
	C1100.727783,236.483505 1102.862305,235.953003 1104.636963,234.845795 
	C1104.993286,234.623520 1103.981567,232.208511 1102.859009,230.440964 
z"/>
<path fill="#100507" opacity="1.000000" stroke="none" 
	d="
M1103.229736,230.622742 
	C1103.981567,232.208511 1104.993286,234.623520 1104.636963,234.845795 
	C1102.862305,235.953003 1100.727783,236.483505 1098.150879,237.424850 
	C1098.150879,234.610886 1098.150879,232.730286 1098.150879,230.440964 
	C1099.755859,230.440964 1101.307495,230.440964 1103.229736,230.622742 
z"/>
</svg>