<svg version="1.1" id="Layer_1" xmlns="http://www.w3.org/2000/svg"
	xmlns:xlink="http://www.w3.org/1999/xlink" x="0px" y="0px"
	width="100%" viewBox="0 0 3009 561" enable-background="new 0 0 3009 561" xml:space="preserve">
<path fill="none" opacity="1.000000" stroke="none" 
	d="
M2261.000000,562.000000 
	C1507.333374,562.000000 754.166687,562.000000 1.000000,562.000000 
	C1.000000,375.000000 1.000000,188.000000 1.000000,1.000000 
	C1004.000000,1.000000 2007.000000,1.000000 3010.000000,1.000000 
	C3010.000000,188.000000 3010.000000,375.000000 3010.000000,562.000000 
	C2760.500000,562.000000 2511.000000,562.000000 2261.000000,562.000000 
M1890.096680,135.033768 
	C1887.970581,135.385300 1885.844604,135.736832 1882.884033,136.459991 
	C1874.524048,138.224899 1866.001343,139.446350 1857.843994,141.888321 
	C1846.917480,145.159302 1835.500122,148.005310 1825.706787,153.536270 
	C1813.769287,160.278076 1801.851685,167.676819 1792.430298,178.158249 
	C1787.899048,183.199295 1782.866577,187.796829 1778.438354,192.921188 
	C1774.971924,196.932281 1771.618164,201.184845 1769.053345,205.796722 
	C1765.282227,212.577301 1761.947998,219.644913 1758.976074,226.817520 
	C1750.946045,246.197678 1745.554443,266.237946 1745.146606,287.376251 
	C1745.010986,294.403625 1746.027222,301.195099 1747.326294,308.199371 
	C1750.266357,324.052521 1754.368408,339.522766 1761.082764,353.970337 
	C1766.148315,364.869873 1773.191528,375.030914 1780.503418,384.647156 
	C1786.073975,391.973206 1792.963135,398.519958 1800.116211,404.373962 
	C1816.293579,417.613403 1834.654175,427.234314 1854.768677,432.871857 
	C1884.915161,441.321106 1915.054810,440.883545 1944.901123,430.851624 
	C1958.793823,426.182007 1972.137451,420.380829 1983.830078,411.418854 
	C1989.752197,406.879791 1995.569458,402.081726 2000.771973,396.754211 
	C2008.486816,388.854126 2016.808472,381.142303 2022.676147,371.948975 
	C2029.420288,361.382141 2034.156128,349.449982 2039.063232,337.815247 
	C2045.181152,323.309631 2047.986938,307.860840 2048.075195,292.222260 
	C2048.139160,280.863892 2047.320679,269.269684 2044.965454,258.191010 
	C2042.421265,246.222870 2038.167114,234.519592 2033.635620,223.107086 
	C2030.581543,215.415710 2026.128052,208.186249 2021.606079,201.199707 
	C2017.652588,195.091599 2013.086060,189.278702 2008.126343,183.953796 
	C2003.761841,179.267929 1998.469116,175.448486 1993.603638,171.226471 
	C1990.238159,168.305893 1987.243164,164.779083 1983.479126,162.536163 
	C1976.540527,158.401657 1969.315186,154.653671 1961.917847,151.409424 
	C1953.907471,147.896225 1945.708740,144.648300 1937.326172,142.192413 
	C1928.476562,139.599731 1919.312988,138.078079 1910.506958,135.311081 
	C1908.026367,135.259247 1905.545776,135.207397 1902.140869,135.032288 
	C1898.407471,135.074097 1894.674072,135.115906 1890.096680,135.033768 
M344.001221,261.500000 
	C344.001251,304.993835 343.754272,348.489838 344.143127,391.980194 
	C344.269287,406.092468 350.415741,417.544037 364.302094,423.021362 
	C373.282013,426.563324 382.821259,426.632019 392.122894,424.314819 
	C396.824280,423.143616 401.712646,421.392914 405.622803,418.636475 
	C415.535797,411.648346 417.760162,400.709930 417.905182,389.568054 
	C418.468567,346.283051 418.369476,302.987671 419.182129,259.708679 
	C419.424011,246.826508 424.433929,234.886917 433.322266,225.323654 
	C447.295929,210.288940 464.849579,207.219803 484.022217,212.320770 
	C489.754547,213.845871 494.719543,217.276443 498.238251,222.658401 
	C504.691559,232.528809 506.797089,243.608215 506.877106,254.907532 
	C507.183807,298.233185 506.964935,341.562378 507.055939,384.890015 
	C507.065277,389.342957 507.206055,393.974121 508.413269,398.200531 
	C509.892609,403.379669 511.772095,408.781921 514.857361,413.103333 
	C525.197571,427.586487 547.498596,428.197418 561.720825,422.475342 
	C575.091675,417.095825 580.792847,405.718048 580.898865,391.926697 
	C581.189575,354.100403 580.716248,316.266876 581.183350,278.444122 
	C581.313049,267.936066 582.755005,257.234558 585.230896,247.018280 
	C588.313904,234.297195 595.412842,223.812592 607.136841,216.840561 
	C618.955505,209.812302 631.539856,208.686172 644.560181,211.458389 
	C652.554565,213.160522 659.277344,217.068283 663.543091,224.734283 
	C668.797485,234.177139 670.815796,244.404755 670.886597,254.858475 
	C671.163879,295.851410 670.954224,336.847382 671.046143,377.842010 
	C671.061035,384.468292 671.287659,391.144745 672.132568,397.705780 
	C673.202637,406.015381 676.625488,413.658051 683.537415,418.580841 
	C696.506348,427.817535 711.133301,427.857849 725.304199,422.596313 
	C738.980286,417.518402 744.773682,405.669312 744.873779,391.757172 
	C745.205750,345.598785 745.036133,299.436462 744.982300,253.275696 
	C744.960205,234.358292 742.107544,215.879059 734.894226,198.312851 
	C726.450500,177.750519 712.166992,162.852127 690.733276,155.888382 
	C675.481934,150.933273 659.842651,149.329315 643.667419,150.831970 
	C620.070984,153.024048 599.645874,161.670959 582.609436,178.025909 
	C577.454834,182.974304 573.082214,188.737366 568.226318,194.269791 
	C567.346924,192.567947 566.530457,190.940247 565.672363,189.334747 
	C558.900818,176.664322 549.318359,166.674759 536.446289,160.287292 
	C515.315125,149.801422 493.039398,147.918213 470.059723,152.472122 
	C454.409119,155.573608 440.502075,162.207016 428.612244,172.890320 
	C424.507172,176.578842 420.591370,180.477982 416.144318,184.703552 
	C415.590271,174.407333 412.276337,165.953888 404.906677,159.425064 
	C399.050812,154.237335 391.927643,152.325790 384.338928,151.604248 
	C374.821960,150.699356 365.848877,152.289001 357.853882,157.687744 
	C347.868774,164.430405 344.118469,174.475693 344.047913,186.009750 
	C343.895935,210.839005 344.001221,235.669815 344.001221,261.500000 
M93.012520,415.503571 
	C109.028481,417.998688 124.977837,421.164307 141.082733,422.764130 
	C152.722031,423.920319 164.613052,423.644501 176.309982,422.830780 
	C189.980667,421.879730 203.804260,420.732544 217.133270,417.754028 
	C246.445099,411.203949 272.534821,398.362000 292.018585,374.473145 
	C299.650024,365.116364 305.500397,354.766083 309.114410,343.216614 
	C313.712219,328.523224 315.568207,313.636993 314.192688,298.133575 
	C313.114380,285.980042 310.445251,274.376251 304.728210,263.839264 
	C294.388947,244.783188 278.243713,231.702362 258.850220,222.463074 
	C236.445465,211.789200 212.317490,207.087616 188.291031,201.913940 
	C168.533524,197.659500 148.757538,193.338776 129.283401,187.980179 
	C118.481888,185.007996 108.872452,179.150787 103.219879,168.519058 
	C92.788055,148.898239 101.360916,121.996620 122.445526,110.211212 
	C137.273285,101.923111 153.575623,99.335793 169.965973,99.323914 
	C184.103561,99.313667 198.329163,101.553093 212.359299,103.782898 
	C228.504761,106.348900 242.756180,114.261497 257.178619,121.541245 
	C269.033295,127.524902 282.329468,125.547966 291.065643,117.517960 
	C305.146729,104.575073 303.865906,76.762825 285.766846,66.099922 
	C273.225922,58.711533 260.225250,51.611855 246.603653,46.653263 
	C219.413544,36.755428 191.089432,33.170971 162.029129,34.817032 
	C148.718781,35.570972 135.642517,36.959011 122.675705,40.005417 
	C91.657959,47.292698 64.960403,61.660870 45.295033,87.325096 
	C35.253338,100.429970 28.804983,115.215485 25.784649,131.592606 
	C23.434130,144.337799 23.574554,156.988754 24.984083,169.751938 
	C26.951324,187.565155 33.447014,203.582535 44.905590,217.265167 
	C60.180130,235.504425 80.548706,246.423721 102.930260,252.520233 
	C128.483871,259.480774 154.738739,263.825256 180.473999,270.177155 
	C194.430023,273.621704 208.286316,278.041931 221.549927,283.555939 
	C234.240631,288.831787 241.289932,302.627594 239.942413,315.659210 
	C238.595154,328.688568 232.065231,338.759460 221.511414,346.236664 
	C206.980972,356.531250 189.940903,358.079926 173.038757,358.781921 
	C161.332260,359.268097 149.512939,358.006653 137.791946,356.979431 
	C110.717628,354.606689 85.679428,345.855438 62.257412,332.187744 
	C55.264778,328.107269 47.601559,326.558655 39.678329,328.712708 
	C27.280874,332.083160 18.442717,344.302460 17.985048,357.847198 
	C17.440483,373.963715 25.028717,385.460785 38.330387,393.564484 
	C55.075974,403.766235 73.205917,410.634277 93.012520,415.503571 
M1529.183228,169.420319 
	C1526.853394,166.646851 1524.916504,163.368576 1522.121216,161.193176 
	C1513.170288,154.227036 1502.907227,152.656860 1491.698486,153.856674 
	C1471.417480,156.027634 1461.218994,169.193298 1461.159424,187.360916 
	C1460.829590,288.162994 1460.932251,388.966827 1461.147583,489.769501 
	C1461.162964,496.960358 1462.805664,504.270538 1467.730347,510.241943 
	C1479.609375,524.645447 1500.775635,525.815796 1515.338135,519.717896 
	C1528.772095,514.092468 1534.771240,502.887207 1534.911377,488.824951 
	C1535.203613,459.503326 1534.999878,430.176727 1535.000000,400.852173 
	C1535.000000,399.171814 1535.000000,397.491425 1535.000000,394.760406 
	C1537.118042,396.748871 1538.284302,397.691406 1539.271729,398.794037 
	C1550.587158,411.430237 1564.795776,419.427948 1580.798584,424.375305 
	C1597.062134,429.403259 1613.667236,430.036285 1630.535522,428.079010 
	C1654.677490,425.277740 1675.517822,415.566956 1692.771362,398.602997 
	C1706.261353,385.339478 1715.553833,369.170166 1721.914551,351.484863 
	C1731.721802,324.216858 1732.560303,295.951599 1730.101562,267.415558 
	C1728.368408,247.302444 1722.957397,228.316391 1713.280640,210.540680 
	C1699.855713,185.879333 1680.385010,168.102432 1653.734741,158.892792 
	C1637.139648,153.157974 1620.048584,151.007278 1602.343994,152.858871 
	C1583.566040,154.822708 1566.303833,160.382217 1551.089233,171.554230 
	C1545.180786,175.892838 1539.939819,181.140625 1534.276733,186.077179 
	C1533.790527,183.372940 1533.527588,180.564713 1532.740967,177.911774 
	C1531.942993,175.220367 1530.627686,172.682281 1529.183228,169.420319 
M999.825134,208.835419 
	C988.770569,182.481415 969.099060,166.005646 941.777527,158.428909 
	C918.638000,152.011902 895.165588,151.167648 871.355103,153.823624 
	C848.575867,156.364563 826.947083,162.661942 805.444458,170.414078 
	C789.626465,176.116806 781.008728,192.354385 784.072449,208.395966 
	C786.549377,221.365280 799.037292,232.844452 813.484070,228.949966 
	C818.274780,227.658493 823.029907,226.066696 827.591187,224.119904 
	C852.417542,213.523849 878.018311,207.992325 905.180176,210.948135 
	C921.373108,212.710251 932.543274,221.708359 935.948608,237.552917 
	C937.363708,244.137375 937.268188,251.037262 938.033142,257.774017 
	C938.513855,262.007477 936.759827,263.015106 932.687927,263.101807 
	C911.764465,263.547333 890.806152,263.731110 869.944214,265.201233 
	C856.126587,266.174927 842.311035,268.508331 828.748474,271.417175 
	C813.362732,274.717102 798.723206,280.516388 787.036682,291.570862 
	C768.403992,309.195831 765.914490,331.940369 768.558960,355.632172 
	C770.107910,369.509552 775.839539,382.034119 784.919556,392.959320 
	C796.728149,407.167419 811.486938,416.986115 828.807800,422.913239 
	C843.730896,428.019867 859.252625,429.756226 874.955505,428.927460 
	C889.741577,428.147064 904.033569,424.792511 916.324341,416.203308 
	C924.367554,410.582489 931.546204,403.724487 939.191040,397.354889 
	C939.380615,398.168945 939.527344,399.656616 940.071289,400.981201 
	C942.133667,406.003998 943.496887,411.581818 946.627930,415.846008 
	C954.924805,427.145569 967.233459,429.121063 980.142822,427.667877 
	C992.281250,426.301453 1001.533875,419.979736 1005.665222,408.246063 
	C1007.768921,402.271423 1008.792908,395.628113 1008.856628,389.272552 
	C1009.170715,357.945740 1009.104553,326.613617 1008.955505,295.284363 
	C1008.881958,279.824280 1008.348328,264.366272 1008.006653,248.907654 
	C1007.706360,235.321854 1004.633545,222.295212 999.825134,208.835419 
M2713.254395,419.798065 
	C2723.215332,415.673279 2733.419922,412.041931 2743.064941,407.277405 
	C2751.750977,402.986572 2759.285889,397.017761 2763.270996,387.508148 
	C2768.056396,376.090210 2766.372803,364.002136 2758.467529,355.969879 
	C2751.350342,348.738312 2739.182129,346.765717 2728.295898,351.392487 
	C2723.110352,353.596527 2718.275391,356.635345 2713.068604,358.778595 
	C2689.109863,368.641357 2664.366943,372.475403 2638.608887,367.931091 
	C2624.999268,365.530060 2612.735596,360.074707 2603.077393,350.191681 
	C2593.815674,340.714508 2588.500244,328.872284 2586.038086,315.833923 
	C2584.750244,309.014679 2584.818604,308.999573 2592.054688,308.999176 
	C2613.551025,308.998016 2635.048096,309.122955 2656.543213,308.968781 
	C2686.499023,308.753998 2716.456299,308.486755 2746.406982,307.925995 
	C2759.746338,307.676239 2769.083008,297.698669 2768.950195,284.410919 
	C2768.878662,277.282501 2768.813721,270.089508 2767.858887,263.045898 
	C2764.310059,236.866180 2756.948975,212.200531 2739.369873,191.464890 
	C2729.527344,179.854828 2718.131592,170.341827 2704.472900,163.870346 
	C2682.595215,153.504929 2659.487061,150.086273 2635.287598,151.825500 
	C2615.903564,153.218658 2597.736572,157.907425 2580.677002,167.134689 
	C2552.512207,182.368210 2533.287842,205.420258 2522.195068,235.157928 
	C2513.591797,258.221924 2511.530273,282.166199 2513.853760,306.703217 
	C2515.614502,325.296265 2520.083252,342.881256 2528.711670,359.469177 
	C2543.727539,388.337097 2567.119873,407.420654 2597.440918,418.200317 
	C2621.697998,426.824066 2646.781982,430.080811 2672.390381,426.910950 
	C2685.829834,425.247437 2699.115967,422.348114 2713.254395,419.798065 
M2222.149902,151.196243 
	C2210.582520,149.132629 2199.066895,145.796814 2187.434570,145.321228 
	C2172.235840,144.699799 2156.781494,145.174530 2141.730469,147.276779 
	C2117.739014,150.627747 2096.445557,160.184509 2078.629395,177.592758 
	C2056.571777,199.145233 2052.285400,237.951019 2064.957275,263.764771 
	C2073.920898,282.024658 2089.222656,293.416260 2108.215576,298.932373 
	C2125.674561,304.002869 2143.731689,307.002991 2161.501709,311.018951 
	C2172.954590,313.607269 2184.721191,315.385925 2195.708252,319.314880 
	C2211.082275,324.812683 2213.734619,338.913452 2206.806641,350.987976 
	C2202.800781,357.969757 2195.867920,361.921356 2188.007080,364.019928 
	C2171.100342,368.533661 2154.132812,367.191772 2137.180420,364.533722 
	C2120.463867,361.912659 2104.824707,355.982574 2089.545898,348.863068 
	C2076.750000,342.900696 2062.686523,346.351074 2056.177979,356.716187 
	C2048.773682,368.507080 2050.485840,384.538422 2060.687988,393.829163 
	C2070.885010,403.115265 2083.772705,408.095001 2096.919189,411.950653 
	C2112.229980,416.441010 2127.820801,419.709869 2143.830078,419.976776 
	C2159.076172,420.230988 2174.433838,421.017670 2189.555908,419.591339 
	C2206.782227,417.966522 2223.350830,412.855225 2238.459473,403.818359 
	C2251.265625,396.158478 2261.920166,386.420624 2268.931641,373.097992 
	C2277.685547,356.463776 2279.897461,338.692596 2276.767090,320.377960 
	C2274.601318,307.704376 2269.285156,296.360748 2259.774170,287.228241 
	C2245.405273,273.431488 2227.545654,267.024963 2208.631104,263.075897 
	C2188.040771,258.776947 2167.240967,255.431564 2146.761475,250.683334 
	C2140.827393,249.307480 2134.244141,245.717056 2130.450684,241.096146 
	C2120.520264,229.000305 2126.868652,209.975876 2141.953125,204.174286 
	C2156.894287,198.427780 2172.300537,197.946945 2187.981445,200.451660 
	C2202.559082,202.780151 2216.207520,207.598068 2229.442139,214.092880 
	C2245.893555,222.166458 2259.650635,217.250549 2266.754395,205.002350 
	C2275.384521,190.121979 2270.929688,172.649796 2255.400879,165.295029 
	C2244.772949,160.261459 2233.755615,156.050049 2222.149902,151.196243 
M1284.127197,382.278534 
	C1293.962646,404.708130 1311.292236,419.158752 1334.018188,426.655792 
	C1359.274780,434.987732 1385.184692,435.158966 1411.163940,429.487762 
	C1417.537598,428.096436 1423.776978,426.865173 1428.649414,421.911621 
	C1438.572754,411.823212 1441.466797,385.368683 1433.752686,373.575592 
	C1430.409546,368.464691 1423.804077,366.234985 1417.003662,367.457825 
	C1404.634644,369.682068 1392.332031,372.630432 1379.567627,370.041687 
	C1369.433228,367.986359 1360.675293,364.245056 1355.133667,354.772217 
	C1349.819336,345.688202 1348.302124,335.606476 1348.169067,325.585754 
	C1347.724121,292.102722 1348.076050,258.609741 1347.907227,225.121689 
	C1347.885376,220.765442 1349.455688,219.870270 1353.414551,219.921783 
	C1368.240479,220.114777 1383.077881,220.281082 1397.895874,219.887665 
	C1406.142456,219.668671 1414.663330,219.125610 1421.304321,213.137863 
	C1431.426758,204.011200 1432.173340,192.289474 1429.057495,180.213669 
	C1426.164795,169.003036 1415.776123,162.073563 1403.387451,162.019119 
	C1387.059814,161.947357 1370.731689,162.004166 1354.403687,161.999695 
	C1348.006836,161.997955 1348.002441,161.990585 1348.000977,155.369827 
	C1347.997803,141.207855 1348.136353,127.044121 1347.955444,112.884453 
	C1347.816406,101.990089 1341.460205,88.752090 1328.380981,83.615578 
	C1320.469727,80.508659 1312.311401,80.316032 1304.294312,81.209465 
	C1292.469238,82.527245 1282.379761,87.756653 1277.921143,99.599083 
	C1275.691284,105.521744 1274.448242,112.082458 1274.168579,118.416824 
	C1273.603394,131.220963 1273.881104,144.069351 1274.073120,156.895554 
	C1274.130127,160.705185 1273.179321,162.264969 1269.064697,162.088821 
	C1261.747192,161.775543 1254.391113,161.699600 1247.079346,162.074097 
	C1236.463501,162.617859 1227.672119,166.722534 1223.083374,176.975937 
	C1220.409424,182.950974 1220.072632,189.243286 1220.865112,195.861176 
	C1222.387207,208.570786 1231.509155,218.090103 1244.255615,218.959641 
	C1252.032959,219.490189 1259.841309,220.019669 1267.622681,219.869385 
	C1272.508179,219.775009 1274.233032,220.863007 1274.136719,226.161743 
	C1273.788940,245.315750 1273.870361,264.481049 1274.035889,283.639923 
	C1274.205566,303.261993 1274.558716,322.884125 1275.032227,342.501373 
	C1275.359863,356.080902 1278.635620,369.063446 1284.127197,382.278534 
M2489.516846,165.018295 
	C2484.435059,159.165527 2477.599365,157.171066 2470.291504,157.073578 
	C2453.295166,156.846832 2436.292480,156.882339 2419.295654,157.086380 
	C2415.174805,157.135834 2413.846680,155.951263 2413.910645,151.756195 
	C2414.138916,136.760330 2414.216797,121.754730 2413.931641,106.760811 
	C2413.701660,94.675354 2407.921387,85.327385 2397.506836,79.464134 
	C2390.302002,75.408119 2382.098145,74.351051 2373.807373,75.014900 
	C2359.296387,76.176826 2347.809326,82.707481 2342.828857,96.825966 
	C2340.886230,102.332115 2340.305908,108.504913 2340.119873,114.406082 
	C2339.726318,126.893127 2339.876953,139.403152 2340.073730,151.899506 
	C2340.134033,155.719818 2339.164062,157.253891 2335.058350,157.089035 
	C2327.404541,156.781769 2319.727783,156.909607 2312.063232,157.023544 
	C2300.083740,157.201645 2290.213867,164.439514 2287.708984,176.071121 
	C2286.494629,181.709167 2286.536133,187.977554 2287.591309,193.667099 
	C2289.598877,204.489990 2296.677979,211.457855 2307.629395,212.934326 
	C2316.141357,214.081894 2324.857910,213.781830 2333.486572,213.972290 
	C2339.989502,214.115829 2339.952148,214.008408 2340.006104,220.523102 
	C2340.326172,259.148712 2340.641846,297.774414 2341.013672,336.399567 
	C2341.131592,348.657654 2344.013184,360.419189 2348.136719,371.862488 
	C2354.314209,389.005829 2364.981934,402.742981 2380.614258,412.222931 
	C2398.553467,423.101929 2418.591309,426.736115 2439.162109,427.958344 
	C2455.086914,428.904572 2470.602783,425.903961 2485.826904,421.714203 
	C2491.587158,420.129028 2496.380615,416.419403 2499.247314,410.597229 
	C2503.986816,400.971161 2504.948242,390.717804 2503.750732,380.425079 
	C2501.747803,363.206451 2492.073975,359.872681 2479.427979,362.570923 
	C2469.054688,364.784180 2458.702393,365.809357 2448.314209,364.846527 
	C2435.837891,363.690125 2425.490234,358.658539 2419.587646,346.413452 
	C2414.933838,336.759094 2414.331543,326.442535 2414.179443,316.288757 
	C2413.695068,283.964111 2414.066895,251.627289 2413.916992,219.296051 
	C2413.897949,215.179291 2415.048584,213.855057 2419.242676,213.910233 
	C2435.739014,214.127197 2452.251953,214.349701 2468.732910,213.799011 
	C2474.139160,213.618362 2479.969482,212.034073 2484.736816,209.473740 
	C2498.844482,201.897202 2500.578125,177.456055 2489.516846,165.018295 
M1095.872681,413.293976 
	C1097.248413,405.857483 1099.726807,398.433716 1099.812866,390.982330 
	C1100.228271,354.990173 1099.970947,318.990570 1100.041260,282.993774 
	C1100.048950,279.033356 1100.415771,275.044189 1100.973755,271.119202 
	C1104.150513,248.772583 1118.859131,232.013107 1140.724121,227.031235 
	C1152.789795,224.282150 1165.202148,223.085846 1177.414795,220.941681 
	C1185.842529,219.462067 1193.359619,216.058151 1198.212769,208.547440 
	C1206.935913,195.047333 1204.998901,181.301758 1198.180542,167.935272 
	C1194.201782,160.135468 1186.835449,156.967148 1178.248413,157.053467 
	C1172.786499,157.108368 1167.251343,157.197556 1161.884155,158.086624 
	C1140.133911,161.689560 1120.120728,169.074432 1104.693848,185.809631 
	C1102.391235,188.307556 1100.105469,190.821060 1097.292114,193.895279 
	C1097.148438,192.136200 1097.093018,191.197845 1096.992432,190.264343 
	C1095.521606,176.593597 1089.762817,165.737564 1076.431885,160.357498 
	C1068.028320,156.965927 1059.124390,157.071960 1050.409912,158.814590 
	C1038.360840,161.224030 1029.973267,168.463791 1026.575928,180.315689 
	C1024.864380,186.286423 1024.141357,192.727463 1024.107910,198.961929 
	C1023.895386,238.624069 1023.876953,278.288422 1024.042114,317.951019 
	C1024.157104,345.576569 1024.347778,373.209778 1025.149658,400.820831 
	C1025.497437,412.792206 1030.893799,422.677887 1042.262695,428.059387 
	C1054.599609,433.899109 1067.462036,433.707458 1080.041748,429.271942 
	C1087.256592,426.727997 1092.772217,421.515137 1095.872681,413.293976 
M2873.000000,331.500000 
	C2873.000000,310.342255 2872.552246,289.172638 2873.114502,268.029846 
	C2873.801758,242.175888 2885.829590,223.596466 2910.294434,216.101990 
	C2923.135010,212.168503 2936.956299,211.530151 2950.235352,208.902115 
	C2959.177246,207.132477 2967.276367,203.454987 2972.311523,195.110245 
	C2977.730713,186.129654 2977.868164,176.383987 2975.603760,166.703323 
	C2972.832031,154.853699 2966.717529,145.414383 2953.211182,144.950455 
	C2947.352539,144.749222 2941.381592,145.130890 2935.592041,146.059982 
	C2909.645264,150.223831 2886.521973,159.730576 2869.996338,182.756027 
	C2869.996338,180.731110 2870.082764,179.616302 2869.983154,178.518402 
	C2868.763672,165.082596 2863.639893,154.358337 2850.391357,148.621857 
	C2843.168457,145.494202 2835.692139,145.411575 2828.327148,146.138535 
	C2810.788818,147.869629 2798.343750,158.454651 2798.215820,176.058441 
	C2797.699707,247.024582 2797.910156,317.996948 2798.114746,388.966248 
	C2798.140869,398.051880 2801.930908,406.176147 2809.180664,412.032623 
	C2821.988525,422.378845 2836.623535,421.895233 2851.241211,417.586304 
	C2859.001709,415.298737 2865.915039,410.321808 2868.584717,402.238251 
	C2870.889160,395.260376 2872.524414,387.789215 2872.808350,380.472198 
	C2873.427979,364.503021 2873.000000,348.493225 2873.000000,331.500000 
M2017.505615,133.144043 
	C2025.675171,123.042542 2036.525269,118.264809 2049.211182,116.869202 
	C2052.448486,116.513062 2055.592041,115.307426 2058.778809,114.492096 
	C2058.748535,113.980499 2058.718018,113.468903 2058.687744,112.957306 
	C2056.384033,112.294785 2054.086182,111.610397 2051.775146,110.973953 
	C2045.267578,109.181602 2038.476196,108.070587 2032.307007,105.477127 
	C2022.489624,101.349968 2015.430176,94.360886 2012.876099,83.379181 
	C2011.110596,75.787552 2008.570923,68.375961 2006.128662,60.035191 
	C2003.997803,67.880302 2001.618896,74.752419 2000.312988,81.822708 
	C1997.221558,98.558548 1980.824097,107.443130 1966.591553,110.008728 
	C1962.083374,110.821373 1957.299072,110.773575 1952.186890,114.262787 
	C1955.078857,115.064072 1956.746216,115.600105 1958.447998,115.984100 
	C1964.237549,117.290428 1970.161133,118.148399 1975.811646,119.895241 
	C1989.226929,124.042587 1997.559937,133.136032 2000.827515,146.873550 
	C2002.371460,153.365280 2004.165771,159.797485 2005.743286,165.859604 
	C2009.530029,155.177307 2013.324341,144.473969 2017.505615,133.144043 
z"/>
<path fill="#CCC" opacity="1.000000" stroke="none" 
	d="
M344.001221,261.000000 
	C344.001221,235.669815 343.895935,210.839005 344.047913,186.009750 
	C344.118469,174.475693 347.868774,164.430405 357.853882,157.687744 
	C365.848877,152.289001 374.821960,150.699356 384.338928,151.604248 
	C391.927643,152.325790 399.050812,154.237335 404.906677,159.425064 
	C412.276337,165.953888 415.590271,174.407333 416.144318,184.703552 
	C420.591370,180.477982 424.507172,176.578842 428.612244,172.890320 
	C440.502075,162.207016 454.409119,155.573608 470.059723,152.472122 
	C493.039398,147.918213 515.315125,149.801422 536.446289,160.287292 
	C549.318359,166.674759 558.900818,176.664322 565.672363,189.334747 
	C566.530457,190.940247 567.346924,192.567947 568.226318,194.269791 
	C573.082214,188.737366 577.454834,182.974304 582.609436,178.025909 
	C599.645874,161.670959 620.070984,153.024048 643.667419,150.831970 
	C659.842651,149.329315 675.481934,150.933273 690.733276,155.888382 
	C712.166992,162.852127 726.450500,177.750519 734.894226,198.312851 
	C742.107544,215.879059 744.960205,234.358292 744.982300,253.275696 
	C745.036133,299.436462 745.205750,345.598785 744.873779,391.757172 
	C744.773682,405.669312 738.980286,417.518402 725.304199,422.596313 
	C711.133301,427.857849 696.506348,427.817535 683.537415,418.580841 
	C676.625488,413.658051 673.202637,406.015381 672.132568,397.705780 
	C671.287659,391.144745 671.061035,384.468292 671.046143,377.842010 
	C670.954224,336.847382 671.163879,295.851410 670.886597,254.858475 
	C670.815796,244.404755 668.797485,234.177139 663.543091,224.734283 
	C659.277344,217.068283 652.554565,213.160522 644.560181,211.458389 
	C631.539856,208.686172 618.955505,209.812302 607.136841,216.840561 
	C595.412842,223.812592 588.313904,234.297195 585.230896,247.018280 
	C582.755005,257.234558 581.313049,267.936066 581.183350,278.444122 
	C580.716248,316.266876 581.189575,354.100403 580.898865,391.926697 
	C580.792847,405.718048 575.091675,417.095825 561.720825,422.475342 
	C547.498596,428.197418 525.197571,427.586487 514.857361,413.103333 
	C511.772095,408.781921 509.892609,403.379669 508.413269,398.200531 
	C507.206055,393.974121 507.065277,389.342957 507.055939,384.890015 
	C506.964935,341.562378 507.183807,298.233185 506.877106,254.907532 
	C506.797089,243.608215 504.691559,232.528809 498.238251,222.658401 
	C494.719543,217.276443 489.754547,213.845871 484.022217,212.320770 
	C464.849579,207.219803 447.295929,210.288940 433.322266,225.323654 
	C424.433929,234.886917 419.424011,246.826508 419.182129,259.708679 
	C418.369476,302.987671 418.468567,346.283051 417.905182,389.568054 
	C417.760162,400.709930 415.535797,411.648346 405.622803,418.636475 
	C401.712646,421.392914 396.824280,423.143616 392.122894,424.314819 
	C382.821259,426.632019 373.282013,426.563324 364.302094,423.021362 
	C350.415741,417.544037 344.269287,406.092468 344.143127,391.980194 
	C343.754272,348.489838 344.001251,304.993835 344.001221,261.000000 
z"/>
<path fill="#CCC" opacity="1.000000" stroke="none" 
	d="
M92.621811,415.361206 
	C73.205917,410.634277 55.075974,403.766235 38.330387,393.564484 
	C25.028717,385.460785 17.440483,373.963715 17.985048,357.847198 
	C18.442717,344.302460 27.280874,332.083160 39.678329,328.712708 
	C47.601559,326.558655 55.264778,328.107269 62.257412,332.187744 
	C85.679428,345.855438 110.717628,354.606689 137.791946,356.979431 
	C149.512939,358.006653 161.332260,359.268097 173.038757,358.781921 
	C189.940903,358.079926 206.980972,356.531250 221.511414,346.236664 
	C232.065231,338.759460 238.595154,328.688568 239.942413,315.659210 
	C241.289932,302.627594 234.240631,288.831787 221.549927,283.555939 
	C208.286316,278.041931 194.430023,273.621704 180.473999,270.177155 
	C154.738739,263.825256 128.483871,259.480774 102.930260,252.520233 
	C80.548706,246.423721 60.180130,235.504425 44.905590,217.265167 
	C33.447014,203.582535 26.951324,187.565155 24.984083,169.751938 
	C23.574554,156.988754 23.434130,144.337799 25.784649,131.592606 
	C28.804983,115.215485 35.253338,100.429970 45.295033,87.325096 
	C64.960403,61.660870 91.657959,47.292698 122.675705,40.005417 
	C135.642517,36.959011 148.718781,35.570972 162.029129,34.817032 
	C191.089432,33.170971 219.413544,36.755428 246.603653,46.653263 
	C260.225250,51.611855 273.225922,58.711533 285.766846,66.099922 
	C303.865906,76.762825 305.146729,104.575073 291.065643,117.517960 
	C282.329468,125.547966 269.033295,127.524902 257.178619,121.541245 
	C242.756180,114.261497 228.504761,106.348900 212.359299,103.782898 
	C198.329163,101.553093 184.103561,99.313667 169.965973,99.323914 
	C153.575623,99.335793 137.273285,101.923111 122.445526,110.211212 
	C101.360916,121.996620 92.788055,148.898239 103.219879,168.519058 
	C108.872452,179.150787 118.481888,185.007996 129.283401,187.980179 
	C148.757538,193.338776 168.533524,197.659500 188.291031,201.913940 
	C212.317490,207.087616 236.445465,211.789200 258.850220,222.463074 
	C278.243713,231.702362 294.388947,244.783188 304.728210,263.839264 
	C310.445251,274.376251 313.114380,285.980042 314.192688,298.133575 
	C315.568207,313.636993 313.712219,328.523224 309.114410,343.216614 
	C305.500397,354.766083 299.650024,365.116364 292.018585,374.473145 
	C272.534821,398.362000 246.445099,411.203949 217.133270,417.754028 
	C203.804260,420.732544 189.980667,421.879730 176.309982,422.830780 
	C164.613052,423.644501 152.722031,423.920319 141.082733,422.764130 
	C124.977837,421.164307 109.028481,417.998688 92.621811,415.361206 
z"/>
<path fill="#CCC" opacity="1.000000" stroke="none" 
	d="
M1529.361084,169.748672 
	C1530.627686,172.682281 1531.942993,175.220367 1532.740967,177.911774 
	C1533.527588,180.564713 1533.790527,183.372940 1534.276733,186.077179 
	C1539.939819,181.140625 1545.180786,175.892838 1551.089233,171.554230 
	C1566.303833,160.382217 1583.566040,154.822708 1602.343994,152.858871 
	C1620.048584,151.007278 1637.139648,153.157974 1653.734741,158.892792 
	C1680.385010,168.102432 1699.855713,185.879333 1713.280640,210.540680 
	C1722.957397,228.316391 1728.368408,247.302444 1730.101562,267.415558 
	C1732.560303,295.951599 1731.721802,324.216858 1721.914551,351.484863 
	C1715.553833,369.170166 1706.261353,385.339478 1692.771362,398.602997 
	C1675.517822,415.566956 1654.677490,425.277740 1630.535522,428.079010 
	C1613.667236,430.036285 1597.062134,429.403259 1580.798584,424.375305 
	C1564.795776,419.427948 1550.587158,411.430237 1539.271729,398.794037 
	C1538.284302,397.691406 1537.118042,396.748871 1535.000000,394.760406 
	C1535.000000,397.491425 1535.000000,399.171814 1535.000000,400.852173 
	C1534.999878,430.176727 1535.203613,459.503326 1534.911377,488.824951 
	C1534.771240,502.887207 1528.772095,514.092468 1515.338135,519.717896 
	C1500.775635,525.815796 1479.609375,524.645447 1467.730347,510.241943 
	C1462.805664,504.270538 1461.162964,496.960358 1461.147583,489.769501 
	C1460.932251,388.966827 1460.829590,288.162994 1461.159424,187.360916 
	C1461.218994,169.193298 1471.417480,156.027634 1491.698486,153.856674 
	C1502.907227,152.656860 1513.170288,154.227036 1522.121216,161.193176 
	C1524.916504,163.368576 1526.853394,166.646851 1529.361084,169.748672 
M1614.961914,367.543549 
	C1632.632202,361.587982 1643.871460,349.104187 1650.065186,331.991638 
	C1657.986694,310.105743 1658.481323,287.529907 1654.707397,264.812744 
	C1652.501099,251.531570 1647.839844,239.148148 1638.508423,229.041992 
	C1626.079956,215.581497 1610.531738,210.265228 1592.371826,210.918823 
	C1568.685425,211.771317 1549.397705,225.516312 1541.338257,247.239670 
	C1537.550537,257.448914 1535.793213,267.888702 1534.795288,278.716949 
	C1533.013550,298.049133 1534.566528,316.787567 1541.850830,334.846771 
	C1554.095459,365.204285 1584.380005,376.993561 1614.961914,367.543549 
z"/>
<path fill="#CCC" opacity="1.000000" stroke="none" 
	d="
M999.922607,209.209396 
	C1004.633545,222.295212 1007.706360,235.321854 1008.006653,248.907654 
	C1008.348328,264.366272 1008.881958,279.824280 1008.955505,295.284363 
	C1009.104553,326.613617 1009.170715,357.945740 1008.856628,389.272552 
	C1008.792908,395.628113 1007.768921,402.271423 1005.665222,408.246063 
	C1001.533875,419.979736 992.281250,426.301453 980.142822,427.667877 
	C967.233459,429.121063 954.924805,427.145569 946.627930,415.846008 
	C943.496887,411.581818 942.133667,406.003998 940.071289,400.981201 
	C939.527344,399.656616 939.380615,398.168945 939.191040,397.354889 
	C931.546204,403.724487 924.367554,410.582489 916.324341,416.203308 
	C904.033569,424.792511 889.741577,428.147064 874.955505,428.927460 
	C859.252625,429.756226 843.730896,428.019867 828.807800,422.913239 
	C811.486938,416.986115 796.728149,407.167419 784.919556,392.959320 
	C775.839539,382.034119 770.107910,369.509552 768.558960,355.632172 
	C765.914490,331.940369 768.403992,309.195831 787.036682,291.570862 
	C798.723206,280.516388 813.362732,274.717102 828.748474,271.417175 
	C842.311035,268.508331 856.126587,266.174927 869.944214,265.201233 
	C890.806152,263.731110 911.764465,263.547333 932.687927,263.101807 
	C936.759827,263.015106 938.513855,262.007477 938.033142,257.774017 
	C937.268188,251.037262 937.363708,244.137375 935.948608,237.552917 
	C932.543274,221.708359 921.373108,212.710251 905.180176,210.948135 
	C878.018311,207.992325 852.417542,213.523849 827.591187,224.119904 
	C823.029907,226.066696 818.274780,227.658493 813.484070,228.949966 
	C799.037292,232.844452 786.549377,221.365280 784.072449,208.395966 
	C781.008728,192.354385 789.626465,176.116806 805.444458,170.414078 
	C826.947083,162.661942 848.575867,156.364563 871.355103,153.823624 
	C895.165588,151.167648 918.638000,152.011902 941.777527,158.428909 
	C969.099060,166.005646 988.770569,182.481415 999.922607,209.209396 
M932.344116,309.000000 
	C910.595215,308.955841 888.808228,308.319885 867.354004,313.015228 
	C859.034485,314.835999 850.485107,316.720367 845.118713,323.986176 
	C834.048767,338.974518 841.240295,363.153198 859.222229,370.993042 
	C874.556763,377.678680 890.468201,377.598785 905.513550,370.564911 
	C928.508667,359.814484 938.831787,336.564423 938.040955,312.332703 
	C937.921387,308.668488 935.655945,308.994232 932.344116,309.000000 
z"/>
<path fill="#CCC" opacity="1.000000" stroke="none" 
	d="
M2712.862793,419.902466 
	C2699.115967,422.348114 2685.829834,425.247437 2672.390381,426.910950 
	C2646.781982,430.080811 2621.697998,426.824066 2597.440918,418.200317 
	C2567.119873,407.420654 2543.727539,388.337097 2528.711670,359.469177 
	C2520.083252,342.881256 2515.614502,325.296265 2513.853760,306.703217 
	C2511.530273,282.166199 2513.591797,258.221924 2522.195068,235.157928 
	C2533.287842,205.420258 2552.512207,182.368210 2580.677002,167.134689 
	C2597.736572,157.907425 2615.903564,153.218658 2635.287598,151.825500 
	C2659.487061,150.086273 2682.595215,153.504929 2704.472900,163.870346 
	C2718.131592,170.341827 2729.527344,179.854828 2739.369873,191.464890 
	C2756.948975,212.200531 2764.310059,236.866180 2767.858887,263.045898 
	C2768.813721,270.089508 2768.878662,277.282501 2768.950195,284.410919 
	C2769.083008,297.698669 2759.746338,307.676239 2746.406982,307.925995 
	C2716.456299,308.486755 2686.499023,308.753998 2656.543213,308.968781 
	C2635.048096,309.122955 2613.551025,308.998016 2592.054688,308.999176 
	C2584.818604,308.999573 2584.750244,309.014679 2586.038086,315.833923 
	C2588.500244,328.872284 2593.815674,340.714508 2603.077393,350.191681 
	C2612.735596,360.074707 2624.999268,365.530060 2638.608887,367.931091 
	C2664.366943,372.475403 2689.109863,368.641357 2713.068604,358.778595 
	C2718.275391,356.635345 2723.110352,353.596527 2728.295898,351.392487 
	C2739.182129,346.765717 2751.350342,348.738312 2758.467529,355.969879 
	C2766.372803,364.002136 2768.056396,376.090210 2763.270996,387.508148 
	C2759.285889,397.017761 2751.750977,402.986572 2743.064941,407.277405 
	C2733.419922,412.041931 2723.215332,415.673279 2712.862793,419.902466 
M2697.886963,232.750504 
	C2693.607666,227.310226 2689.982178,221.147873 2684.924316,216.567337 
	C2670.689697,203.676727 2653.325195,202.428848 2635.401123,205.446411 
	C2621.372803,207.808105 2609.662598,214.444077 2600.642334,225.771225 
	C2592.054688,236.555099 2587.296387,248.774277 2585.018066,263.000000 
	C2587.342529,263.000000 2589.120850,263.000000 2590.899414,263.000000 
	C2626.841309,263.000000 2662.782959,263.001770 2698.724854,262.998352 
	C2705.170654,262.997742 2706.245117,261.957733 2704.690430,255.803253 
	C2702.790527,248.280853 2700.380371,240.887405 2697.886963,232.750504 
z"/>
<path fill="#CCC" opacity="1.000000" stroke="none" 
	d="
M2222.531250,151.333664 
	C2233.755615,156.050049 2244.772949,160.261459 2255.400879,165.295029 
	C2270.929688,172.649796 2275.384521,190.121979 2266.754395,205.002350 
	C2259.650635,217.250549 2245.893555,222.166458 2229.442139,214.092880 
	C2216.207520,207.598068 2202.559082,202.780151 2187.981445,200.451660 
	C2172.300537,197.946945 2156.894287,198.427780 2141.953125,204.174286 
	C2126.868652,209.975876 2120.520264,229.000305 2130.450684,241.096146 
	C2134.244141,245.717056 2140.827393,249.307480 2146.761475,250.683334 
	C2167.240967,255.431564 2188.040771,258.776947 2208.631104,263.075897 
	C2227.545654,267.024963 2245.405273,273.431488 2259.774170,287.228241 
	C2269.285156,296.360748 2274.601318,307.704376 2276.767090,320.377960 
	C2279.897461,338.692596 2277.685547,356.463776 2268.931641,373.097992 
	C2261.920166,386.420624 2251.265625,396.158478 2238.459473,403.818359 
	C2223.350830,412.855225 2206.782227,417.966522 2189.555908,419.591339 
	C2174.433838,421.017670 2159.076172,420.230988 2143.830078,419.976776 
	C2127.820801,419.709869 2112.229980,416.441010 2096.919189,411.950653 
	C2083.772705,408.095001 2070.885010,403.115265 2060.687988,393.829163 
	C2050.485840,384.538422 2048.773682,368.507080 2056.177979,356.716187 
	C2062.686523,346.351074 2076.750000,342.900696 2089.545898,348.863068 
	C2104.824707,355.982574 2120.463867,361.912659 2137.180420,364.533722 
	C2154.132812,367.191772 2171.100342,368.533661 2188.007080,364.019928 
	C2195.867920,361.921356 2202.800781,357.969757 2206.806641,350.987976 
	C2213.734619,338.913452 2211.082275,324.812683 2195.708252,319.314880 
	C2184.721191,315.385925 2172.954590,313.607269 2161.501709,311.018951 
	C2143.731689,307.002991 2125.674561,304.002869 2108.215576,298.932373 
	C2089.222656,293.416260 2073.920898,282.024658 2064.957275,263.764771 
	C2052.285400,237.951019 2056.571777,199.145233 2078.629395,177.592758 
	C2096.445557,160.184509 2117.739014,150.627747 2141.730469,147.276779 
	C2156.781494,145.174530 2172.235840,144.699799 2187.434570,145.321228 
	C2199.066895,145.796814 2210.582520,149.132629 2222.531250,151.333664 
z"/>
<path fill="#CCC" opacity="1.000000" stroke="none" 
	d="
M1283.973511,381.931488 
	C1278.635620,369.063446 1275.359863,356.080902 1275.032227,342.501373 
	C1274.558716,322.884125 1274.205566,303.261993 1274.035889,283.639923 
	C1273.870361,264.481049 1273.788940,245.315750 1274.136719,226.161743 
	C1274.233032,220.863007 1272.508179,219.775009 1267.622681,219.869385 
	C1259.841309,220.019669 1252.032959,219.490189 1244.255615,218.959641 
	C1231.509155,218.090103 1222.387207,208.570786 1220.865112,195.861176 
	C1220.072632,189.243286 1220.409424,182.950974 1223.083374,176.975937 
	C1227.672119,166.722534 1236.463501,162.617859 1247.079346,162.074097 
	C1254.391113,161.699600 1261.747192,161.775543 1269.064697,162.088821 
	C1273.179321,162.264969 1274.130127,160.705185 1274.073120,156.895554 
	C1273.881104,144.069351 1273.603394,131.220963 1274.168579,118.416824 
	C1274.448242,112.082458 1275.691284,105.521744 1277.921143,99.599083 
	C1282.379761,87.756653 1292.469238,82.527245 1304.294312,81.209465 
	C1312.311401,80.316032 1320.469727,80.508659 1328.380981,83.615578 
	C1341.460205,88.752090 1347.816406,101.990089 1347.955444,112.884453 
	C1348.136353,127.044121 1347.997803,141.207855 1348.000977,155.369827 
	C1348.002441,161.990585 1348.006836,161.997955 1354.403687,161.999695 
	C1370.731689,162.004166 1387.059814,161.947357 1403.387451,162.019119 
	C1415.776123,162.073563 1426.164795,169.003036 1429.057495,180.213669 
	C1432.173340,192.289474 1431.426758,204.011200 1421.304321,213.137863 
	C1414.663330,219.125610 1406.142456,219.668671 1397.895874,219.887665 
	C1383.077881,220.281082 1368.240479,220.114777 1353.414551,219.921783 
	C1349.455688,219.870270 1347.885376,220.765442 1347.907227,225.121689 
	C1348.076050,258.609741 1347.724121,292.102722 1348.169067,325.585754 
	C1348.302124,335.606476 1349.819336,345.688202 1355.133667,354.772217 
	C1360.675293,364.245056 1369.433228,367.986359 1379.567627,370.041687 
	C1392.332031,372.630432 1404.634644,369.682068 1417.003662,367.457825 
	C1423.804077,366.234985 1430.409546,368.464691 1433.752686,373.575592 
	C1441.466797,385.368683 1438.572754,411.823212 1428.649414,421.911621 
	C1423.776978,426.865173 1417.537598,428.096436 1411.163940,429.487762 
	C1385.184692,435.158966 1359.274780,434.987732 1334.018188,426.655792 
	C1311.292236,419.158752 1293.962646,404.708130 1283.973511,381.931488 
z"/>
<path fill="#CCC" opacity="1.000000" stroke="none" 
	d="
M2489.771973,165.274780 
	C2500.578125,177.456055 2498.844482,201.897202 2484.736816,209.473740 
	C2479.969482,212.034073 2474.139160,213.618362 2468.732910,213.799011 
	C2452.251953,214.349701 2435.739014,214.127197 2419.242676,213.910233 
	C2415.048584,213.855057 2413.897949,215.179291 2413.916992,219.296051 
	C2414.066895,251.627289 2413.695068,283.964111 2414.179443,316.288757 
	C2414.331543,326.442535 2414.933838,336.759094 2419.587646,346.413452 
	C2425.490234,358.658539 2435.837891,363.690125 2448.314209,364.846527 
	C2458.702393,365.809357 2469.054688,364.784180 2479.427979,362.570923 
	C2492.073975,359.872681 2501.747803,363.206451 2503.750732,380.425079 
	C2504.948242,390.717804 2503.986816,400.971161 2499.247314,410.597229 
	C2496.380615,416.419403 2491.587158,420.129028 2485.826904,421.714203 
	C2470.602783,425.903961 2455.086914,428.904572 2439.162109,427.958344 
	C2418.591309,426.736115 2398.553467,423.101929 2380.614258,412.222931 
	C2364.981934,402.742981 2354.314209,389.005829 2348.136719,371.862488 
	C2344.013184,360.419189 2341.131592,348.657654 2341.013672,336.399567 
	C2340.641846,297.774414 2340.326172,259.148712 2340.006104,220.523102 
	C2339.952148,214.008408 2339.989502,214.115829 2333.486572,213.972290 
	C2324.857910,213.781830 2316.141357,214.081894 2307.629395,212.934326 
	C2296.677979,211.457855 2289.598877,204.489990 2287.591309,193.667099 
	C2286.536133,187.977554 2286.494629,181.709167 2287.708984,176.071121 
	C2290.213867,164.439514 2300.083740,157.201645 2312.063232,157.023544 
	C2319.727783,156.909607 2327.404541,156.781769 2335.058350,157.089035 
	C2339.164062,157.253891 2340.134033,155.719818 2340.073730,151.899506 
	C2339.876953,139.403152 2339.726318,126.893127 2340.119873,114.406082 
	C2340.305908,108.504913 2340.886230,102.332115 2342.828857,96.825966 
	C2347.809326,82.707481 2359.296387,76.176826 2373.807373,75.014900 
	C2382.098145,74.351051 2390.302002,75.408119 2397.506836,79.464134 
	C2407.921387,85.327385 2413.701660,94.675354 2413.931641,106.760811 
	C2414.216797,121.754730 2414.138916,136.760330 2413.910645,151.756195 
	C2413.846680,155.951263 2415.174805,157.135834 2419.295654,157.086380 
	C2436.292480,156.882339 2453.295166,156.846832 2470.291504,157.073578 
	C2477.599365,157.171066 2484.435059,159.165527 2489.771973,165.274780 
z"/>
<path fill="#CCC" opacity="1.000000" stroke="none" 
	d="
M1095.701782,413.638184 
	C1092.772217,421.515137 1087.256592,426.727997 1080.041748,429.271942 
	C1067.462036,433.707458 1054.599609,433.899109 1042.262695,428.059387 
	C1030.893799,422.677887 1025.497437,412.792206 1025.149658,400.820831 
	C1024.347778,373.209778 1024.157104,345.576569 1024.042114,317.951019 
	C1023.876953,278.288422 1023.895386,238.624069 1024.107910,198.961929 
	C1024.141357,192.727463 1024.864380,186.286423 1026.575928,180.315689 
	C1029.973267,168.463791 1038.360840,161.224030 1050.409912,158.814590 
	C1059.124390,157.071960 1068.028320,156.965927 1076.431885,160.357498 
	C1089.762817,165.737564 1095.521606,176.593597 1096.992432,190.264343 
	C1097.093018,191.197845 1097.148438,192.136200 1097.292114,193.895279 
	C1100.105469,190.821060 1102.391235,188.307556 1104.693848,185.809631 
	C1120.120728,169.074432 1140.133911,161.689560 1161.884155,158.086624 
	C1167.251343,157.197556 1172.786499,157.108368 1178.248413,157.053467 
	C1186.835449,156.967148 1194.201782,160.135468 1198.180542,167.935272 
	C1204.998901,181.301758 1206.935913,195.047333 1198.212769,208.547440 
	C1193.359619,216.058151 1185.842529,219.462067 1177.414795,220.941681 
	C1165.202148,223.085846 1152.789795,224.282150 1140.724121,227.031235 
	C1118.859131,232.013107 1104.150513,248.772583 1100.973755,271.119202 
	C1100.415771,275.044189 1100.048950,279.033356 1100.041260,282.993774 
	C1099.970947,318.990570 1100.228271,354.990173 1099.812866,390.982330 
	C1099.726807,398.433716 1097.248413,405.857483 1095.701782,413.638184 
z"/>
<path fill="#CCC" opacity="1.000000" stroke="none" 
	d="
M2873.000000,332.000000 
	C2873.000000,348.493225 2873.427979,364.503021 2872.808350,380.472198 
	C2872.524414,387.789215 2870.889160,395.260376 2868.584717,402.238251 
	C2865.915039,410.321808 2859.001709,415.298737 2851.241211,417.586304 
	C2836.623535,421.895233 2821.988525,422.378845 2809.180664,412.032623 
	C2801.930908,406.176147 2798.140869,398.051880 2798.114746,388.966248 
	C2797.910156,317.996948 2797.699707,247.024582 2798.215820,176.058441 
	C2798.343750,158.454651 2810.788818,147.869629 2828.327148,146.138535 
	C2835.692139,145.411575 2843.168457,145.494202 2850.391357,148.621857 
	C2863.639893,154.358337 2868.763672,165.082596 2869.983154,178.518402 
	C2870.082764,179.616302 2869.996338,180.731110 2869.996338,182.756027 
	C2886.521973,159.730576 2909.645264,150.223831 2935.592041,146.059982 
	C2941.381592,145.130890 2947.352539,144.749222 2953.211182,144.950455 
	C2966.717529,145.414383 2972.832031,154.853699 2975.603760,166.703323 
	C2977.868164,176.383987 2977.730713,186.129654 2972.311523,195.110245 
	C2967.276367,203.454987 2959.177246,207.132477 2950.235352,208.902115 
	C2936.956299,211.530151 2923.135010,212.168503 2910.294434,216.101990 
	C2885.829590,223.596466 2873.801758,242.175888 2873.114502,268.029846 
	C2872.552246,289.172638 2873.000000,310.342255 2873.000000,332.000000 
z"/>
<path fill="#5E5E7C" opacity="1.000000" stroke="none" 
	d="
M1910.286621,136.088547 
	C1919.312988,138.078079 1928.476562,139.599731 1937.326172,142.192413 
	C1945.708740,144.648300 1953.907471,147.896225 1961.917847,151.409424 
	C1969.315186,154.653671 1976.540527,158.401657 1983.479126,162.536163 
	C1987.243164,164.779083 1990.238159,168.305893 1993.603638,171.226471 
	C1998.469116,175.448486 2003.761841,179.267929 2008.126343,183.953796 
	C2013.086060,189.278702 2017.652588,195.091599 2021.606079,201.199707 
	C2026.128052,208.186249 2030.581543,215.415710 2033.635620,223.107086 
	C2038.167114,234.519592 2042.421265,246.222870 2044.965454,258.191010 
	C2047.320679,269.269684 2048.139160,280.863892 2048.075195,292.222260 
	C2047.986938,307.860840 2045.181152,323.309631 2039.063232,337.815247 
	C2034.156128,349.449982 2029.420288,361.382141 2022.676147,371.948975 
	C2016.808472,381.142303 2008.486816,388.854126 2000.771973,396.754211 
	C1995.569458,402.081726 1989.752197,406.879791 1983.830078,411.418854 
	C1972.137451,420.380829 1958.793823,426.182007 1944.901123,430.851624 
	C1915.054810,440.883545 1884.915161,441.321106 1854.768677,432.871857 
	C1834.654175,427.234314 1816.293579,417.613403 1800.116211,404.373962 
	C1792.963135,398.519958 1786.073975,391.973206 1780.503418,384.647156 
	C1773.191528,375.030914 1766.148315,364.869873 1761.082764,353.970337 
	C1754.368408,339.522766 1750.266357,324.052521 1747.326294,308.199371 
	C1746.027222,301.195099 1745.010986,294.403625 1745.146606,287.376251 
	C1745.554443,266.237946 1750.946045,246.197678 1758.976074,226.817520 
	C1761.947998,219.644913 1765.282227,212.577301 1769.053345,205.796722 
	C1771.618164,201.184845 1774.971924,196.932281 1778.438354,192.921188 
	C1782.866577,187.796829 1787.899048,183.199295 1792.430298,178.158249 
	C1801.851685,167.676819 1813.769287,160.278076 1825.706787,153.536270 
	C1835.500122,148.005310 1846.917480,145.159302 1857.843994,141.888321 
	C1866.001343,139.446350 1874.524048,138.224899 1883.650757,136.224335 
	C1886.591919,135.711670 1888.766235,135.434677 1890.940674,135.157700 
	C1894.674072,135.115906 1898.407471,135.074097 1902.900635,135.315491 
	C1905.869019,135.761978 1908.077881,135.925262 1910.286621,136.088547 
M1764.231079,316.174835 
	C1767.929077,332.912994 1774.535156,348.470184 1783.965454,362.726349 
	C1818.063110,414.272644 1884.004395,436.012482 1942.256470,415.084106 
	C2008.301270,391.356018 2045.207886,323.058807 2028.788574,254.952576 
	C2011.798950,184.480881 1941.380249,139.481705 1870.345337,153.928299 
	C1834.267944,161.265503 1805.506226,180.267563 1784.843018,210.634933 
	C1763.211914,242.424759 1756.520630,277.567078 1764.231079,316.174835 
z"/>
<path fill="#CCC" opacity="1.000000" stroke="none" 
	d="
M2017.312134,133.457336 
	C2013.324341,144.473969 2009.530029,155.177307 2005.743286,165.859604 
	C2004.165771,159.797485 2002.371460,153.365280 2000.827515,146.873550 
	C1997.559937,133.136032 1989.226929,124.042587 1975.811646,119.895241 
	C1970.161133,118.148399 1964.237549,117.290428 1958.447998,115.984100 
	C1956.746216,115.600105 1955.078857,115.064072 1952.186890,114.262787 
	C1957.299072,110.773575 1962.083374,110.821373 1966.591553,110.008728 
	C1980.824097,107.443130 1997.221558,98.558548 2000.312988,81.822708 
	C2001.618896,74.752419 2003.997803,67.880302 2006.128662,60.035191 
	C2008.570923,68.375961 2011.110596,75.787552 2012.876099,83.379181 
	C2015.430176,94.360886 2022.489624,101.349968 2032.307007,105.477127 
	C2038.476196,108.070587 2045.267578,109.181602 2051.775146,110.973953 
	C2054.086182,111.610397 2056.384033,112.294785 2058.687744,112.957306 
	C2058.718018,113.468903 2058.748535,113.980499 2058.778809,114.492096 
	C2055.592041,115.307426 2052.448486,116.513062 2049.211182,116.869202 
	C2036.525269,118.264809 2025.675171,123.042542 2017.312134,133.457336 
z"/>
<path fill="#666682" opacity="1.000000" stroke="none" 
	d="
M1910.396729,135.699814 
	C1908.077881,135.925262 1905.869019,135.761978 1903.362793,135.377121 
	C1905.545776,135.207397 1908.026367,135.259247 1910.396729,135.699814 
z"/>
<path fill="#666682" opacity="1.000000" stroke="none" 
	d="
M1890.518677,135.095734 
	C1888.766235,135.434677 1886.591919,135.711670 1884.067993,136.038513 
	C1885.844604,135.736832 1887.970581,135.385300 1890.518677,135.095734 
z"/>
<path fill="#000000" opacity="1.000000" stroke="none" 
	d="
M1614.600586,367.718750 
	C1584.380005,376.993561 1554.095459,365.204285 1541.850830,334.846771 
	C1534.566528,316.787567 1533.013550,298.049133 1534.795288,278.716949 
	C1535.793213,267.888702 1537.550537,257.448914 1541.338257,247.239670 
	C1549.397705,225.516312 1568.685425,211.771317 1592.371826,210.918823 
	C1610.531738,210.265228 1626.079956,215.581497 1638.508423,229.041992 
	C1647.839844,239.148148 1652.501099,251.531570 1654.707397,264.812744 
	C1658.481323,287.529907 1657.986694,310.105743 1650.065186,331.991638 
	C1643.871460,349.104187 1632.632202,361.587982 1614.600586,367.718750 
z"/>
<path fill="#000000" opacity="1.000000" stroke="none" 
	d="
M932.821167,309.000275 
	C935.655945,308.994232 937.921387,308.668488 938.040955,312.332703 
	C938.831787,336.564423 928.508667,359.814484 905.513550,370.564911 
	C890.468201,377.598785 874.556763,377.678680 859.222229,370.993042 
	C841.240295,363.153198 834.048767,338.974518 845.118713,323.986176 
	C850.485107,316.720367 859.034485,314.835999 867.354004,313.015228 
	C888.808228,308.319885 910.595215,308.955841 932.821167,309.000275 
z"/>
<path fill="#000000" opacity="1.000000" stroke="none" 
	d="
M2698.039062,233.094360 
	C2700.380371,240.887405 2702.790527,248.280853 2704.690430,255.803253 
	C2706.245117,261.957733 2705.170654,262.997742 2698.724854,262.998352 
	C2662.782959,263.001770 2626.841309,263.000000 2590.899414,263.000000 
	C2589.120850,263.000000 2587.342529,263.000000 2585.018066,263.000000 
	C2587.296387,248.774277 2592.054688,236.555099 2600.642334,225.771225 
	C2609.662598,214.444077 2621.372803,207.808105 2635.401123,205.446411 
	C2653.325195,202.428848 2670.689697,203.676727 2684.924316,216.567337 
	C2689.982178,221.147873 2693.607666,227.310226 2698.039062,233.094360 
z"/>
<path fill="#F9F8F0" opacity="1.000000" stroke="none" 
	d="
M1764.168701,315.757782 
	C1756.520630,277.567078 1763.211914,242.424759 1784.843018,210.634933 
	C1805.506226,180.267563 1834.267944,161.265503 1870.345337,153.928299 
	C1941.380249,139.481705 2011.798950,184.480881 2028.788574,254.952576 
	C2045.207886,323.058807 2008.301270,391.356018 1942.256470,415.084106 
	C1884.004395,436.012482 1818.063110,414.272644 1783.965454,362.726349 
	C1774.535156,348.470184 1767.929077,332.912994 1764.168701,315.757782 
M1848.251587,317.200195 
	C1854.109619,323.290436 1860.825806,328.772644 1865.656250,335.590881 
	C1877.635742,352.500336 1882.432373,372.377380 1886.887085,392.243103 
	C1888.802124,400.783478 1890.410156,409.392700 1892.157593,417.970642 
	C1893.743408,416.067078 1894.203979,414.039520 1894.697998,412.020172 
	C1898.689209,395.705261 1902.120483,379.227234 1906.807129,363.114410 
	C1915.104248,334.589142 1932.810669,314.188843 1961.516479,304.833618 
	C1975.876465,300.153717 1990.655396,296.742950 2005.288086,292.924255 
	C2010.813232,291.482361 2016.460449,290.508789 2022.052002,289.321716 
	C2020.351685,287.903595 2018.767944,287.546173 2017.190186,287.164032 
	C2000.542603,283.131683 1983.707642,279.736511 1967.290649,274.917938 
	C1938.865723,266.574768 1918.239746,249.067154 1908.911133,220.292618 
	C1904.202148,205.767761 1900.750488,190.830429 1896.889648,176.037979 
	C1895.447632,170.513611 1894.459106,164.870865 1893.263794,159.282074 
	C1891.925659,161.029831 1891.570923,162.643829 1891.182739,164.249802 
	C1887.159058,180.899200 1883.758057,197.731033 1878.955933,214.153030 
	C1871.610840,239.271317 1857.214355,259.317322 1832.258301,269.401184 
	C1818.443481,274.983246 1803.864746,278.765442 1789.471558,282.791412 
	C1780.970215,285.169373 1772.158813,286.438965 1763.486938,288.207001 
	C1772.710938,291.281647 1781.977173,292.987823 1791.147705,295.108490 
	C1810.982178,299.695007 1830.609985,304.902283 1848.251587,317.200195 
z"/>
<path fill="#030338" opacity="1.000000" stroke="none" 
	d="
M1847.939941,317.021576 
	C1830.609985,304.902283 1810.982178,299.695007 1791.147705,295.108490 
	C1781.977173,292.987823 1772.710938,291.281647 1763.486938,288.207001 
	C1772.158813,286.438965 1780.970215,285.169373 1789.471558,282.791412 
	C1803.864746,278.765442 1818.443481,274.983246 1832.258301,269.401184 
	C1857.214355,259.317322 1871.610840,239.271317 1878.955933,214.153030 
	C1883.758057,197.731033 1887.159058,180.899200 1891.182739,164.249802 
	C1891.570923,162.643829 1891.925659,161.029831 1893.263794,159.282074 
	C1894.459106,164.870865 1895.447632,170.513611 1896.889648,176.037979 
	C1900.750488,190.830429 1904.202148,205.767761 1908.911133,220.292618 
	C1918.239746,249.067154 1938.865723,266.574768 1967.290649,274.917938 
	C1983.707642,279.736511 2000.542603,283.131683 2017.190186,287.164032 
	C2018.767944,287.546173 2020.351685,287.903595 2022.052002,289.321716 
	C2016.460449,290.508789 2010.813232,291.482361 2005.288086,292.924255 
	C1990.655396,296.742950 1975.876465,300.153717 1961.516479,304.833618 
	C1932.810669,314.188843 1915.104248,334.589142 1906.807129,363.114410 
	C1902.120483,379.227234 1898.689209,395.705261 1894.697998,412.020172 
	C1894.203979,414.039520 1893.743408,416.067078 1892.157593,417.970642 
	C1890.410156,409.392700 1888.802124,400.783478 1886.887085,392.243103 
	C1882.432373,372.377380 1877.635742,352.500336 1865.656250,335.590881 
	C1860.825806,328.772644 1854.109619,323.290436 1847.939941,317.021576 
z"/>
</svg>