<svg version="1.1" id="Layer_1" xmlns="http://www.w3.org/2000/svg"
	xmlns:xlink="http://www.w3.org/1999/xlink" x="0px" y="0px"
	width="100%" viewBox="0 0 806 147" enable-background="new 0 0 806 147" xml:space="preserve">
<path fill="none" opacity="1.000000" stroke="none" 
	d="
M607.000000,148.000000 
	C404.719604,148.000000 202.939194,148.000000 1.079399,148.000000 
	C1.079399,99.065895 1.079399,50.131626 1.079399,1.098675 
	C269.666656,1.098675 538.333313,1.098675 806.973694,1.098675 
	C806.973694,50.060764 806.973694,99.030388 806.973694,148.000000 
	C740.464905,148.000000 673.982483,148.000000 607.000000,148.000000 
M78.500000,7.998023 
	C60.013569,7.997882 41.527046,7.963477 23.040747,8.013395 
	C14.926929,8.035305 10.003016,12.972795 10.001197,20.926027 
	C9.992817,57.565910 9.992314,94.205788 10.001424,130.845673 
	C10.003477,139.105286 13.930806,142.997955 22.244503,142.999512 
	C58.717838,143.006302 95.191170,143.004623 131.664505,143.000671 
	C140.367523,142.999741 144.987930,138.330231 144.993362,129.399643 
	C145.015091,93.759041 145.013687,58.118412 144.994476,22.477812 
	C144.989456,13.164204 139.804871,8.015910 130.462723,8.003961 
	C113.475182,7.982233 96.487579,7.997939 78.500000,7.998023 
M502.000000,45.553246 
	C502.000000,48.164715 502.000000,50.776180 502.000000,53.751133 
	C501.227020,53.341854 500.806732,53.180782 500.455750,52.924667 
	C482.571533,39.875675 457.212006,44.633972 445.258270,64.243347 
	C437.179047,77.496773 436.613953,91.727486 442.443695,105.496254 
	C450.250092,123.933563 465.952393,134.037994 487.069000,128.875259 
	C492.005341,127.668396 496.444214,124.426659 501.114044,122.120125 
	C501.114044,123.956551 501.114044,126.249878 501.114044,128.612900 
	C514.188354,128.612900 527.044556,128.612900 539.782349,128.612900 
	C539.782349,94.963745 539.782349,61.702007 539.782349,28.239960 
	C526.840332,28.239960 514.116455,28.239960 500.626984,28.239960 
	C501.100800,33.894226 501.550415,39.259228 502.000000,45.553246 
M268.962494,100.111237 
	C268.483734,100.949081 268.005005,101.786919 267.653259,102.402512 
	C262.794861,86.618217 257.980438,70.734734 252.994598,54.905251 
	C251.169205,49.109776 246.872391,47.273071 240.585526,49.157612 
	C236.320618,50.436066 233.844452,55.379288 235.233871,60.432316 
	C236.301285,64.314194 237.738571,68.095207 239.034149,71.913361 
	C244.694778,88.595573 250.347290,105.280571 256.039856,121.951881 
	C257.707245,126.834915 261.860413,129.918793 266.651031,129.999908 
	C275.475372,130.149338 276.652039,129.685928 278.993774,122.783371 
	C281.895874,114.229141 284.382874,105.532959 286.991577,96.880714 
	C288.897888,90.558075 290.711060,84.207367 292.565735,77.869171 
	C297.646057,92.686638 301.652100,107.316208 306.135864,121.797867 
	C307.434814,125.993240 310.056305,129.847015 315.394897,129.992981 
	C323.389587,130.211563 327.855957,128.073990 329.755219,122.496155 
	C336.681732,102.154167 343.523682,81.782196 350.202057,61.357620 
	C352.259460,55.065468 349.958496,50.234657 345.014923,49.056911 
	C338.303589,47.458015 333.766724,50.293892 331.962494,56.635971 
	C327.596954,71.981201 323.008820,87.263092 318.113190,103.922188 
	C315.817291,95.798347 314.015381,88.966927 311.947693,82.216934 
	C309.113983,72.966179 306.281158,63.705654 303.060638,54.586102 
	C300.783447,48.137943 294.788574,48.071323 289.760162,49.304245 
	C286.774658,50.036266 283.171967,53.319801 282.178314,56.247463 
	C277.355377,70.457581 273.320892,84.935295 268.962494,100.111237 
M749.019348,124.161781 
	C749.346191,118.092529 749.587402,112.016663 750.055481,105.958336 
	C750.185120,104.280556 750.509705,102.185104 751.576721,101.096977 
	C754.319641,98.299820 757.528748,95.959839 760.585632,93.408661 
	C763.812134,98.815918 766.978394,104.406311 770.422729,109.819687 
	C774.336914,115.971329 778.135498,122.255730 782.671570,127.933350 
	C786.189453,132.336594 795.068237,130.585632 797.732483,125.720131 
	C800.885315,119.962311 798.044800,115.297089 795.168030,110.732605 
	C788.445007,100.064934 781.547668,89.507118 774.745972,78.943756 
	C779.963867,74.007797 785.056946,69.532890 789.737488,64.661598 
	C794.033447,60.190559 794.119263,54.882847 790.541687,51.061741 
	C787.765747,48.096920 779.854431,47.856453 776.549866,51.075798 
	C772.061768,55.448128 768.002380,60.256786 763.642883,64.765961 
	C759.367493,69.188126 754.946533,73.469551 750.000000,78.400429 
	C750.000000,61.431099 750.029663,45.615894 749.986328,29.800888 
	C749.967041,22.748117 746.534485,19.272223 740.314209,18.936928 
	C731.728821,18.474150 729.255371,22.793566 729.142883,31.447973 
	C728.766479,60.411434 728.948059,89.383011 729.052612,118.350983 
	C729.069458,123.033234 730.198425,127.585655 735.190308,129.626831 
	C740.104431,131.636246 745.160461,129.812027 749.019348,124.161781 
M607.832336,49.336308 
	C600.946289,48.890896 594.034119,47.838818 587.180054,48.134464 
	C575.266663,48.648354 565.985046,54.540897 560.123352,64.841942 
	C554.213928,75.226822 552.876099,86.473129 554.876770,98.398972 
	C556.963562,110.837730 562.826172,120.058403 574.034241,126.062531 
	C584.080994,131.444611 594.864502,130.561859 605.373718,129.574387 
	C613.152710,128.843430 620.373596,125.071091 625.581299,118.812469 
	C628.742065,115.013908 631.498352,110.466682 629.593384,105.337738 
	C628.144470,101.436684 624.049500,101.624313 620.561707,102.086632 
	C619.101746,102.280151 617.626160,103.232414 616.401794,104.161354 
	C612.891968,106.824196 609.763916,110.082245 606.015686,112.318222 
	C599.612122,116.138115 592.477478,116.550163 585.891296,113.163872 
	C578.997559,109.619522 575.845154,103.353851 576.017395,94.999954 
	C578.065125,94.999954 579.858093,95.038467 581.648865,94.993782 
	C594.561340,94.671623 607.476746,94.424492 620.384338,93.963264 
	C627.717957,93.701210 630.715454,90.133202 631.047791,82.842300 
	C631.712830,68.251511 622.637451,54.646484 607.832336,49.336308 
M157.440186,113.945389 
	C160.219025,116.952377 162.574615,120.563210 165.851318,122.859871 
	C178.746689,131.898285 193.066650,131.856171 207.584290,128.006271 
	C216.103653,125.747025 222.936569,121.048431 226.254959,112.299690 
	C228.000717,107.697182 226.610886,102.604858 222.810913,102.145569 
	C219.187851,101.707664 215.673203,101.490295 212.388855,104.866699 
	C206.426041,110.996658 199.682999,115.822685 190.082672,115.138794 
	C180.122208,114.429237 172.065598,105.429695 173.520874,94.999954 
	C177.101120,94.999954 180.741516,95.080765 184.377243,94.984863 
	C195.461044,94.692467 206.547226,94.430305 217.624069,93.958633 
	C223.626602,93.703026 227.408035,90.683334 227.929810,85.588951 
	C229.443848,70.806076 222.033997,57.454563 208.433914,50.926262 
	C200.751007,47.238316 192.679306,47.520535 184.761917,48.218807 
	C179.300461,48.700481 173.480667,50.313808 168.770706,53.053856 
	C158.577194,58.983986 153.720627,68.642494 151.871399,80.286682 
	C150.011581,91.997437 151.346191,102.917198 157.440186,113.945389 
M409.259766,83.055199 
	C406.600708,82.361572 403.887238,81.827530 401.293488,80.942513 
	C395.068604,78.818512 388.744080,76.875511 382.765259,74.181564 
	C378.999878,72.484962 378.951172,69.477280 382.057343,66.393379 
	C388.541016,59.956226 400.738037,62.088768 407.014282,70.568031 
	C408.640076,72.764534 411.159790,74.800049 413.699646,75.719246 
	C419.726990,77.900658 424.963013,73.787155 425.011047,67.462585 
	C425.062531,60.689316 420.881561,57.156216 415.621796,53.844341 
	C406.796661,48.287506 397.104614,48.542641 387.490570,49.175598 
	C382.302490,49.517162 376.941437,50.996864 372.164978,53.108788 
	C358.549805,59.128750 356.739838,79.721382 367.724823,87.014236 
	C372.222137,89.999977 377.453583,92.009384 382.552277,93.928314 
	C389.481232,96.536079 396.809448,98.153755 403.584290,101.080620 
	C410.333466,103.996399 410.204285,110.311783 404.407898,114.038231 
	C399.113861,117.441711 393.389404,116.253113 387.761536,115.245590 
	C381.180145,114.067375 378.809814,108.226318 375.262024,103.684792 
	C372.899231,100.660217 369.963013,99.296562 365.979218,100.438889 
	C361.959595,101.591492 360.211334,104.018494 359.939026,108.177818 
	C359.393097,116.517250 364.360535,121.564140 370.652893,125.024605 
	C385.103790,132.971848 400.631165,132.144394 415.262970,126.582649 
	C430.433838,120.816010 434.650177,98.616974 421.993652,89.626640 
	C418.356262,87.042877 413.990448,85.484566 409.259766,83.055199 
M671.420715,77.077011 
	C669.098694,75.990295 666.400208,75.316086 664.592102,73.666191 
	C663.460571,72.633743 662.735535,69.143791 663.447815,68.470726 
	C665.819214,66.229927 668.733887,63.774223 671.782043,63.192871 
	C679.758606,61.671566 686.169006,64.514442 690.500793,71.834778 
	C692.551208,75.299896 699.315613,76.978287 702.921448,75.582756 
	C707.612671,73.767143 708.638123,70.053337 707.982483,65.580391 
	C707.153259,59.923702 703.344116,56.747135 698.723022,53.879658 
	C689.922485,48.418785 680.242004,48.436417 670.606384,49.165375 
	C665.412598,49.558292 660.086304,51.032593 655.272949,53.082764 
	C641.616150,58.899590 639.722290,79.695007 650.641968,86.935036 
	C655.144775,89.920509 660.344177,91.989822 665.438354,93.916260 
	C672.361938,96.534538 679.544861,98.460197 686.509888,100.978050 
	C691.967896,102.951126 694.720825,110.666412 687.014221,114.014824 
	C682.317139,116.055687 676.213379,115.687202 670.858704,115.175163 
	C664.302979,114.548279 661.821594,108.377808 658.326843,103.780182 
	C655.854980,100.528328 652.903198,99.365990 648.666321,100.621262 
	C644.383057,101.890259 643.171143,104.545723 642.953003,108.562531 
	C642.512207,116.679146 647.747986,121.046875 653.508240,125.058029 
	C662.232605,131.133240 672.269958,129.944443 682.072449,130.006943 
	C689.756165,130.055939 696.623047,127.968040 703.080872,123.576630 
	C713.737732,116.329773 717.649597,94.144547 700.984314,87.144493 
	C691.650330,83.223869 681.723938,80.713661 671.420715,77.077011 
z"/>
<path fill="#01054F" opacity="1.000000" stroke="none" 
	d="
M79.000000,7.998023 
	C96.487579,7.997939 113.475182,7.982233 130.462723,8.003961 
	C139.804871,8.015910 144.989456,13.164204 144.994476,22.477812 
	C145.013687,58.118412 145.015091,93.759041 144.993362,129.399643 
	C144.987930,138.330231 140.367523,142.999741 131.664505,143.000671 
	C95.191170,143.004623 58.717838,143.006302 22.244503,142.999512 
	C13.930806,142.997955 10.003477,139.105286 10.001424,130.845673 
	C9.992314,94.205788 9.992817,57.565910 10.001197,20.926027 
	C10.003016,12.972795 14.926929,8.035305 23.040747,8.013395 
	C41.527046,7.963477 60.013569,7.997882 79.000000,7.998023 
M69.059425,92.591095 
	C69.248779,92.872215 69.505684,93.061806 70.020081,93.613289 
	C70.210739,93.895454 70.467041,94.092049 71.029831,94.825333 
	C73.678040,97.559753 76.326256,100.294174 79.142899,103.495262 
	C79.331047,103.790688 79.595879,103.977287 80.110420,104.523415 
	C80.301735,104.819199 80.569618,105.003937 81.092285,105.543106 
	C81.286957,105.834183 81.555145,106.017952 82.071045,106.560417 
	C82.261597,106.852318 82.525764,107.041275 83.043732,107.587776 
	C83.233757,107.874954 83.493492,108.068642 84.011856,108.623062 
	C84.202042,108.905945 84.458145,109.103249 85.031937,109.831795 
	C87.674294,112.566429 90.316650,115.301064 93.168152,118.613197 
	C93.741959,118.781532 94.315765,118.949867 95.291672,119.691925 
	C106.475990,126.591217 120.337219,121.801239 121.521568,109.656509 
	C122.667274,97.907982 121.605049,85.944145 121.116875,73.307396 
	C119.230034,73.476471 117.162415,73.203262 115.486443,73.888268 
	C106.372787,77.613167 98.445381,76.251907 91.681091,68.951401 
	C81.109726,57.542007 70.598595,46.075993 59.946209,34.742752 
	C50.263523,24.441185 36.796982,26.953691 30.602982,40.415234 
	C30.426682,40.987537 30.250381,41.559837 29.550385,42.752323 
	C29.437010,64.721977 28.551407,86.725014 29.499195,108.648796 
	C30.069920,121.850464 45.871822,127.364182 56.758297,118.875298 
	C57.191784,118.360489 57.625271,117.845688 58.527477,117.004951 
	C58.702171,116.675514 58.876869,116.346077 58.997364,116.005486 
	C58.997364,116.005486 59.032921,116.047905 59.613350,115.662697 
	C60.429146,112.429710 61.720020,109.230598 61.953423,105.956093 
	C62.338425,100.554878 61.952789,95.102303 62.116726,89.678177 
	C62.143665,88.786865 63.320004,87.930283 64.206955,87.473740 
	C64.410545,87.736893 64.671646,87.916389 65.163437,88.479126 
	C65.345718,88.779968 65.607552,88.972839 66.120026,89.526375 
	C66.388237,89.711929 66.656448,89.897484 67.092613,90.551224 
	C67.280762,90.850044 67.546951,91.038948 68.074188,91.576279 
	C68.264679,91.867355 68.528084,92.057426 69.059425,92.591095 
M95.046104,60.603828 
	C95.325813,60.772247 95.605530,60.940666 96.254631,61.712154 
	C103.662643,66.565559 109.819214,66.381317 116.593941,60.950451 
	C116.783516,60.684368 116.973099,60.418285 117.612434,59.949875 
	C117.895721,59.745251 118.064217,59.470276 118.716599,58.747883 
	C123.272308,52.649094 122.566734,45.878407 121.097153,38.279713 
	C118.836182,30.824860 113.932594,26.557350 106.048828,26.304934 
	C99.479515,26.094604 93.777084,30.323660 90.569588,37.718803 
	C90.024788,45.106674 87.937485,52.734451 94.056442,59.579285 
	C94.242767,59.876350 94.506851,60.064011 95.046104,60.603828 
z"/>
<path fill="#474748" opacity="1.000000" stroke="none" 
	d="
M502.000000,45.088737 
	C501.550415,39.259228 501.100800,33.894226 500.626984,28.239960 
	C514.116455,28.239960 526.840332,28.239960 539.782349,28.239960 
	C539.782349,61.702007 539.782349,94.963745 539.782349,128.612900 
	C527.044556,128.612900 514.188354,128.612900 501.114044,128.612900 
	C501.114044,126.249878 501.114044,123.956551 501.114044,122.120125 
	C496.444214,124.426659 492.005341,127.668396 487.069000,128.875259 
	C465.952393,134.037994 450.250092,123.933563 442.443695,105.496254 
	C436.613953,91.727486 437.179047,77.496773 445.258270,64.243347 
	C457.212006,44.633972 482.571533,39.875675 500.455750,52.924667 
	C500.806732,53.180782 501.227020,53.341854 502.000000,53.751133 
	C502.000000,50.776180 502.000000,48.164715 502.000000,45.088737 
M480.000000,115.323311 
	C478.897430,123.640388 483.284027,125.121239 490.045532,121.305267 
	C493.690674,119.248024 496.869232,116.259163 499.951233,113.363777 
	C501.087799,112.296013 501.897949,110.295364 501.913513,108.710938 
	C502.059204,93.883675 502.026215,79.054260 501.946198,64.226013 
	C501.940247,63.124599 501.495850,61.578079 500.701843,61.004009 
	C496.766388,58.158707 492.837219,55.197876 488.542328,52.982494 
	C482.648560,49.942360 480.010712,51.791267 480.005310,58.377399 
	C479.990082,77.038208 480.000000,95.699043 480.000000,115.323311 
z"/>
<path fill="#474748" opacity="1.000000" stroke="none" 
	d="
M268.984802,99.714729 
	C273.320892,84.935295 277.355377,70.457581 282.178314,56.247463 
	C283.171967,53.319801 286.774658,50.036266 289.760162,49.304245 
	C294.788574,48.071323 300.783447,48.137943 303.060638,54.586102 
	C306.281158,63.705654 309.113983,72.966179 311.947693,82.216934 
	C314.015381,88.966927 315.817291,95.798347 318.113190,103.922188 
	C323.008820,87.263092 327.596954,71.981201 331.962494,56.635971 
	C333.766724,50.293892 338.303589,47.458015 345.014923,49.056911 
	C349.958496,50.234657 352.259460,55.065468 350.202057,61.357620 
	C343.523682,81.782196 336.681732,102.154167 329.755219,122.496155 
	C327.855957,128.073990 323.389587,130.211563 315.394897,129.992981 
	C310.056305,129.847015 307.434814,125.993240 306.135864,121.797867 
	C301.652100,107.316208 297.646057,92.686638 292.565735,77.869171 
	C290.711060,84.207367 288.897888,90.558075 286.991577,96.880714 
	C284.382874,105.532959 281.895874,114.229141 278.993774,122.783371 
	C276.652039,129.685928 275.475372,130.149338 266.651031,129.999908 
	C261.860413,129.918793 257.707245,126.834915 256.039856,121.951881 
	C250.347290,105.280571 244.694778,88.595573 239.034149,71.913361 
	C237.738571,68.095207 236.301285,64.314194 235.233871,60.432316 
	C233.844452,55.379288 236.320618,50.436066 240.585526,49.157612 
	C246.872391,47.273071 251.169205,49.109776 252.994598,54.905251 
	C257.980438,70.734734 262.794861,86.618217 267.653259,102.402512 
	C268.005005,101.786919 268.483734,100.949081 268.984802,99.714729 
z"/>
<path fill="#474748" opacity="1.000000" stroke="none" 
	d="
M748.995117,124.577209 
	C745.160461,129.812027 740.104431,131.636246 735.190308,129.626831 
	C730.198425,127.585655 729.069458,123.033234 729.052612,118.350983 
	C728.948059,89.383011 728.766479,60.411434 729.142883,31.447973 
	C729.255371,22.793566 731.728821,18.474150 740.314209,18.936928 
	C746.534485,19.272223 749.967041,22.748117 749.986328,29.800888 
	C750.029663,45.615894 750.000000,61.431099 750.000000,78.400429 
	C754.946533,73.469551 759.367493,69.188126 763.642883,64.765961 
	C768.002380,60.256786 772.061768,55.448128 776.549866,51.075798 
	C779.854431,47.856453 787.765747,48.096920 790.541687,51.061741 
	C794.119263,54.882847 794.033447,60.190559 789.737488,64.661598 
	C785.056946,69.532890 779.963867,74.007797 774.745972,78.943756 
	C781.547668,89.507118 788.445007,100.064934 795.168030,110.732605 
	C798.044800,115.297089 800.885315,119.962311 797.732483,125.720131 
	C795.068237,130.585632 786.189453,132.336594 782.671570,127.933350 
	C778.135498,122.255730 774.336914,115.971329 770.422729,109.819687 
	C766.978394,104.406311 763.812134,98.815918 760.585632,93.408661 
	C757.528748,95.959839 754.319641,98.299820 751.576721,101.096977 
	C750.509705,102.185104 750.185120,104.280556 750.055481,105.958336 
	C749.587402,112.016663 749.346191,118.092529 748.995117,124.577209 
z"/>
<path fill="#474748" opacity="1.000000" stroke="none" 
	d="
M608.136169,49.614532 
	C622.637451,54.646484 631.712830,68.251511 631.047791,82.842300 
	C630.715454,90.133202 627.717957,93.701210 620.384338,93.963264 
	C607.476746,94.424492 594.561340,94.671623 581.648865,94.993782 
	C579.858093,95.038467 578.065125,94.999954 576.017395,94.999954 
	C575.845154,103.353851 578.997559,109.619522 585.891296,113.163872 
	C592.477478,116.550163 599.612122,116.138115 606.015686,112.318222 
	C609.763916,110.082245 612.891968,106.824196 616.401794,104.161354 
	C617.626160,103.232414 619.101746,102.280151 620.561707,102.086632 
	C624.049500,101.624313 628.144470,101.436684 629.593384,105.337738 
	C631.498352,110.466682 628.742065,115.013908 625.581299,118.812469 
	C620.373596,125.071091 613.152710,128.843430 605.373718,129.574387 
	C594.864502,130.561859 584.080994,131.444611 574.034241,126.062531 
	C562.826172,120.058403 556.963562,110.837730 554.876770,98.398972 
	C552.876099,86.473129 554.213928,75.226822 560.123352,64.841942 
	C565.985046,54.540897 575.266663,48.648354 587.180054,48.134464 
	C594.034119,47.838818 600.946289,48.890896 608.136169,49.614532 
M592.590637,63.000000 
	C582.936218,63.169064 575.183105,72.169312 576.504333,81.772011 
	C587.918762,81.772011 599.343689,81.772011 610.826599,81.772011 
	C606.924072,66.911453 603.296204,63.019974 592.590637,63.000000 
z"/>
<path fill="#474748" opacity="1.000000" stroke="none" 
	d="
M157.241608,113.623367 
	C151.346191,102.917198 150.011581,91.997437 151.871399,80.286682 
	C153.720627,68.642494 158.577194,58.983986 168.770706,53.053856 
	C173.480667,50.313808 179.300461,48.700481 184.761917,48.218807 
	C192.679306,47.520535 200.751007,47.238316 208.433914,50.926262 
	C222.033997,57.454563 229.443848,70.806076 227.929810,85.588951 
	C227.408035,90.683334 223.626602,93.703026 217.624069,93.958633 
	C206.547226,94.430305 195.461044,94.692467 184.377243,94.984863 
	C180.741516,95.080765 177.101120,94.999954 173.520874,94.999954 
	C172.065598,105.429695 180.122208,114.429237 190.082672,115.138794 
	C199.682999,115.822685 206.426041,110.996658 212.388855,104.866699 
	C215.673203,101.490295 219.187851,101.707664 222.810913,102.145569 
	C226.610886,102.604858 228.000717,107.697182 226.254959,112.299690 
	C222.936569,121.048431 216.103653,125.747025 207.584290,128.006271 
	C193.066650,131.856171 178.746689,131.898285 165.851318,122.859871 
	C162.574615,120.563210 160.219025,116.952377 157.241608,113.623367 
M199.853378,65.353416 
	C193.141144,61.872711 186.275055,61.321880 180.152847,66.091179 
	C175.326309,69.851120 172.983414,75.299019 173.050262,81.637871 
	C184.890320,81.637871 196.357819,81.637871 209.747528,81.637871 
	C206.174438,75.642021 203.275711,70.777832 199.853378,65.353416 
z"/>
<path fill="#474748" opacity="1.000000" stroke="none" 
	d="
M409.609192,83.255646 
	C413.990448,85.484566 418.356262,87.042877 421.993652,89.626640 
	C434.650177,98.616974 430.433838,120.816010 415.262970,126.582649 
	C400.631165,132.144394 385.103790,132.971848 370.652893,125.024605 
	C364.360535,121.564140 359.393097,116.517250 359.939026,108.177818 
	C360.211334,104.018494 361.959595,101.591492 365.979218,100.438889 
	C369.963013,99.296562 372.899231,100.660217 375.262024,103.684792 
	C378.809814,108.226318 381.180145,114.067375 387.761536,115.245590 
	C393.389404,116.253113 399.113861,117.441711 404.407898,114.038231 
	C410.204285,110.311783 410.333466,103.996399 403.584290,101.080620 
	C396.809448,98.153755 389.481232,96.536079 382.552277,93.928314 
	C377.453583,92.009384 372.222137,89.999977 367.724823,87.014236 
	C356.739838,79.721382 358.549805,59.128750 372.164978,53.108788 
	C376.941437,50.996864 382.302490,49.517162 387.490570,49.175598 
	C397.104614,48.542641 406.796661,48.287506 415.621796,53.844341 
	C420.881561,57.156216 425.062531,60.689316 425.011047,67.462585 
	C424.963013,73.787155 419.726990,77.900658 413.699646,75.719246 
	C411.159790,74.800049 408.640076,72.764534 407.014282,70.568031 
	C400.738037,62.088768 388.541016,59.956226 382.057343,66.393379 
	C378.951172,69.477280 378.999878,72.484962 382.765259,74.181564 
	C388.744080,76.875511 395.068604,78.818512 401.293488,80.942513 
	C403.887238,81.827530 406.600708,82.361572 409.609192,83.255646 
z"/>
<path fill="#474748" opacity="1.000000" stroke="none" 
	d="
M671.742554,77.322495 
	C681.723938,80.713661 691.650330,83.223869 700.984314,87.144493 
	C717.649597,94.144547 713.737732,116.329773 703.080872,123.576630 
	C696.623047,127.968040 689.756165,130.055939 682.072449,130.006943 
	C672.269958,129.944443 662.232605,131.133240 653.508240,125.058029 
	C647.747986,121.046875 642.512207,116.679146 642.953003,108.562531 
	C643.171143,104.545723 644.383057,101.890259 648.666321,100.621262 
	C652.903198,99.365990 655.854980,100.528328 658.326843,103.780182 
	C661.821594,108.377808 664.302979,114.548279 670.858704,115.175163 
	C676.213379,115.687202 682.317139,116.055687 687.014221,114.014824 
	C694.720825,110.666412 691.967896,102.951126 686.509888,100.978050 
	C679.544861,98.460197 672.361938,96.534538 665.438354,93.916260 
	C660.344177,91.989822 655.144775,89.920509 650.641968,86.935036 
	C639.722290,79.695007 641.616150,58.899590 655.272949,53.082764 
	C660.086304,51.032593 665.412598,49.558292 670.606384,49.165375 
	C680.242004,48.436417 689.922485,48.418785 698.723022,53.879658 
	C703.344116,56.747135 707.153259,59.923702 707.982483,65.580391 
	C708.638123,70.053337 707.612671,73.767143 702.921448,75.582756 
	C699.315613,76.978287 692.551208,75.299896 690.500793,71.834778 
	C686.169006,64.514442 679.758606,61.671566 671.782043,63.192871 
	C668.733887,63.774223 665.819214,66.229927 663.447815,68.470726 
	C662.735535,69.143791 663.460571,72.633743 664.592102,73.666191 
	C666.400208,75.316086 669.098694,75.990295 671.742554,77.322495 
z"/>
<path fill="#FCFDFD" opacity="1.000000" stroke="none" 
	d="
M31.046980,40.010223 
	C36.796982,26.953691 50.263523,24.441185 59.946209,34.742752 
	C70.598595,46.075993 81.109726,57.542007 91.681091,68.951401 
	C98.445381,76.251907 106.372787,77.613167 115.486443,73.888268 
	C117.162415,73.203262 119.230034,73.476471 120.922478,73.724289 
	C120.095764,75.758736 119.463448,77.376282 118.395294,78.995346 
	C110.234802,79.651299 102.512024,80.717865 95.090813,77.107674 
	C92.920158,76.051704 90.421280,75.118385 88.061943,75.091698 
	C72.427277,74.914932 56.788700,75.092445 41.153660,74.932793 
	C37.431034,74.894783 35.729359,76.358894 34.934654,79.837761 
	C34.663429,81.025063 33.219051,81.944366 32.218704,82.527054 
	C32.038090,69.396858 31.949465,56.725735 32.145443,43.847374 
	C31.969027,42.430161 31.508003,41.220192 31.046980,40.010223 
z"/>
<path fill="#FBFBFC" opacity="1.000000" stroke="none" 
	d="
M91.010696,37.024773 
	C93.777084,30.323660 99.479515,26.094604 106.048828,26.304934 
	C113.932594,26.557350 118.836182,30.824860 120.770813,38.735672 
	C120.071091,42.475502 119.697716,45.759380 119.198929,49.396965 
	C117.485977,56.106190 113.855118,60.589897 107.108360,61.417282 
	C101.838318,62.063568 97.810600,59.400410 95.098595,55.004131 
	C93.991371,53.209259 93.493584,51.038433 92.796631,48.595245 
	C92.253395,44.442814 91.632050,40.733795 91.010696,37.024773 
z"/>
<path fill="#858692" opacity="1.000000" stroke="none" 
	d="
M31.860838,44.054615 
	C31.949465,56.725735 32.038090,69.396858 32.120968,82.986450 
	C32.187244,88.914108 32.259266,93.923294 32.239204,99.370667 
	C32.052544,101.885246 31.957960,103.961647 31.523659,106.102867 
	C30.848146,106.498459 30.213421,106.835342 30.220024,107.159142 
	C30.414444,116.690903 40.713875,124.076111 49.753849,121.201309 
	C51.936993,120.507050 54.104774,119.764488 56.279617,119.044128 
	C45.871822,127.364182 30.069920,121.850464 29.499195,108.648796 
	C28.551407,86.725014 29.437010,64.721977 29.920322,42.720707 
	C30.813787,43.144264 31.337313,43.599442 31.860838,44.054615 
z"/>
<path fill="#7C7D7B" opacity="1.000000" stroke="none" 
	d="
M56.518959,118.959717 
	C54.104774,119.764488 51.936993,120.507050 49.753849,121.201309 
	C40.713875,124.076111 30.414444,116.690903 30.220024,107.159142 
	C30.213421,106.835342 30.848146,106.498459 31.656670,106.176407 
	C32.129402,106.185143 32.394684,106.333084 32.396957,106.678642 
	C32.604599,107.684265 32.809959,108.344322 33.043373,109.287903 
	C33.355522,109.811142 33.639618,110.050873 34.062016,110.606506 
	C36.346027,116.568626 40.960224,119.669769 46.684517,119.312897 
	C52.464317,118.952560 56.827400,115.090996 58.529560,108.855240 
	C58.860950,108.555092 58.972977,108.331871 59.115372,107.696632 
	C59.216999,106.540550 59.222374,105.763405 59.310600,104.620056 
	C59.341969,103.509331 59.290493,102.764824 59.315968,101.559067 
	C59.579536,96.393608 59.766148,91.689384 60.207481,86.987411 
	C60.632027,86.990067 60.801849,86.990494 60.973385,87.460114 
	C60.327709,97.302185 59.680313,106.675041 59.032921,116.047905 
	C59.032921,116.047905 58.997364,116.005486 58.769958,116.150558 
	C58.381290,116.640717 58.220024,116.985802 58.058762,117.330887 
	C57.625271,117.845688 57.191784,118.360489 56.518959,118.959717 
z"/>
<path fill="#838592" opacity="1.000000" stroke="none" 
	d="
M118.831131,78.993835 
	C119.463448,77.376282 120.095764,75.758736 121.120361,74.108032 
	C121.605049,85.944145 122.667274,97.907982 121.521568,109.656509 
	C120.337219,121.801239 106.475990,126.591217 95.124451,119.368378 
	C94.957230,119.044823 95.021896,118.968819 95.395790,119.015717 
	C108.863838,125.961250 118.553215,118.207230 120.424454,108.989166 
	C120.601845,108.115311 119.697365,107.021851 119.191628,105.575127 
	C118.998222,101.083466 118.908333,97.047020 118.906143,92.552505 
	C118.939598,87.727562 118.885368,83.360703 118.831131,78.993835 
z"/>
<path fill="#868795" opacity="1.000000" stroke="none" 
	d="
M90.790146,37.371788 
	C91.632050,40.733795 92.253395,44.442814 92.471237,48.672916 
	C92.723465,52.453747 93.379181,55.713497 93.999268,59.006527 
	C93.963631,59.039806 93.896713,59.110741 93.896713,59.110741 
	C87.937485,52.734451 90.024788,45.106674 90.790146,37.371788 
z"/>
<path fill="#868795" opacity="1.000000" stroke="none" 
	d="
M119.324341,49.043255 
	C119.697716,45.759380 120.071091,42.475502 120.839722,39.109688 
	C122.566734,45.878407 123.272308,52.649094 118.380333,58.897652 
	C118.044067,59.047421 117.966286,58.973839 118.012856,58.608658 
	C118.758957,56.446041 119.714561,54.696762 120.064926,52.833668 
	C120.285988,51.658195 119.602234,50.312561 119.324341,49.043255 
z"/>
<path fill="#858692" opacity="1.000000" stroke="none" 
	d="
M59.323135,115.855301 
	C59.680313,106.675041 60.327709,97.302185 60.993671,87.116669 
	C61.474983,85.658920 61.937729,85.013824 62.400475,84.368729 
	C62.941372,85.227898 63.482277,86.087059 64.002563,86.970901 
	C63.981949,86.995583 63.965134,87.057655 63.965134,87.057655 
	C63.320004,87.930283 62.143665,88.786865 62.116726,89.678177 
	C61.952789,95.102303 62.338425,100.554878 61.953423,105.956093 
	C61.720020,109.230598 60.429146,112.429710 59.323135,115.855301 
z"/>
<path fill="#868795" opacity="1.000000" stroke="none" 
	d="
M116.124542,61.117542 
	C109.819214,66.381317 103.662643,66.565559 96.106323,61.375843 
	C95.958015,61.039532 96.026581,60.965828 96.396866,61.014229 
	C103.190697,65.260124 109.586823,63.965302 116.010956,61.005508 
	C116.047447,61.044212 116.124542,61.117542 116.124542,61.117542 
z"/>
<path fill="#7C7E90" opacity="1.000000" stroke="none" 
	d="
M78.974464,103.028595 
	C76.326256,100.294174 73.678040,97.559753 70.968674,94.456741 
	C70.907524,94.088150 71.023758,93.970909 71.357574,94.025177 
	C74.146950,97.038460 76.602509,99.997490 79.036575,102.973846 
	C79.015076,102.991180 78.974464,103.028595 78.974464,103.028595 
z"/>
<path fill="#7C7E90" opacity="1.000000" stroke="none" 
	d="
M92.959007,118.035698 
	C90.316650,115.301064 87.674294,112.566429 84.966064,109.464340 
	C84.900185,109.096878 85.021172,108.979797 85.320305,109.125076 
	C88.099968,112.169777 90.580490,115.069199 93.037445,117.988335 
	C93.013870,118.008041 92.959007,118.035698 92.959007,118.035698 
z"/>
<path fill="#E0E1E2" opacity="1.000000" stroke="none" 
	d="
M32.145443,43.847374 
	C31.337313,43.599442 30.813787,43.144264 30.182171,42.410614 
	C30.250381,41.559837 30.426682,40.987537 30.824982,40.212730 
	C31.508003,41.220192 31.969027,42.430161 32.145443,43.847374 
z"/>
<path fill="#838592" opacity="1.000000" stroke="none" 
	d="
M94.923401,119.081512 
	C94.315765,118.949867 93.741959,118.781532 93.063583,118.324448 
	C92.959007,118.035698 93.013870,118.008041 93.330536,118.006332 
	C94.105431,118.326019 94.563667,118.647423 95.021896,118.968819 
	C95.021896,118.968819 94.957230,119.044823 94.923401,119.081512 
z"/>
<path fill="#7C7E90" opacity="1.000000" stroke="none" 
	d="
M64.990265,88.012215 
	C64.671646,87.916389 64.410545,87.736893 64.086044,87.265701 
	C63.965134,87.057655 63.981949,86.995583 64.219032,87.088478 
	C64.728989,87.382538 64.923210,87.642487 65.026443,87.973709 
	C65.014114,87.986214 64.990265,88.012215 64.990265,88.012215 
z"/>
<path fill="#7C7E90" opacity="1.000000" stroke="none" 
	d="
M70.848251,94.145615 
	C70.467041,94.092049 70.210739,93.895454 69.974716,93.339859 
	C69.929344,93.066429 70.027954,92.972359 70.245819,93.081085 
	C70.734596,93.389786 70.921288,93.650146 71.023758,93.970909 
	C71.023758,93.970909 70.907524,94.088150 70.848251,94.145615 
z"/>
<path fill="#858692" opacity="1.000000" stroke="none" 
	d="
M58.293121,117.167923 
	C58.220024,116.985802 58.381290,116.640717 58.797058,116.156136 
	C58.876869,116.346077 58.702171,116.675514 58.293121,117.167923 
z"/>
<path fill="#7C7E90" opacity="1.000000" stroke="none" 
	d="
M65.948921,89.057739 
	C65.607552,88.972839 65.345718,88.779968 65.076851,88.245667 
	C64.990265,88.012215 65.014114,87.986214 65.242508,88.085754 
	C65.739113,88.386337 65.928383,88.645111 66.015869,88.985291 
	C65.993027,89.008949 65.948921,89.057739 65.948921,89.057739 
z"/>
<path fill="#7C7E90" opacity="1.000000" stroke="none" 
	d="
M84.840179,109.155930 
	C84.458145,109.103249 84.202042,108.905945 83.968246,108.347382 
	C83.924644,108.071693 84.026077,107.974243 84.244743,108.083488 
	C84.735596,108.393951 84.921516,108.656303 85.021172,108.979797 
	C85.021172,108.979797 84.900185,109.096878 84.840179,109.155930 
z"/>
<path fill="#7C7E90" opacity="1.000000" stroke="none" 
	d="
M83.873779,108.120270 
	C83.493492,108.068642 83.233757,107.874954 82.995705,107.318375 
	C82.947678,107.048981 83.030754,106.969574 83.248474,107.079834 
	C83.737206,107.391212 83.923836,107.652603 84.026077,107.974243 
	C84.026077,107.974243 83.924644,108.071693 83.873779,108.120270 
z"/>
<path fill="#868795" opacity="1.000000" stroke="none" 
	d="
M117.162674,60.152203 
	C116.973099,60.418285 116.783516,60.684368 116.359238,61.033997 
	C116.124542,61.117542 116.047447,61.044212 116.121307,60.788757 
	C116.396164,60.263092 116.657578,60.078400 117.025085,60.022614 
	C117.070763,60.066010 117.162674,60.152203 117.162674,60.152203 
z"/>
<path fill="#7C7E90" opacity="1.000000" stroke="none" 
	d="
M82.905617,107.088135 
	C82.525764,107.041275 82.261597,106.852318 82.018753,106.295578 
	C81.966469,106.030739 82.034737,105.965599 82.251663,106.076782 
	C82.738358,106.389244 82.925743,106.649780 83.030754,106.969574 
	C83.030754,106.969574 82.947678,107.048981 82.905617,107.088135 
z"/>
<path fill="#7C7E90" opacity="1.000000" stroke="none" 
	d="
M81.931656,106.062576 
	C81.555145,106.017952 81.286957,105.834183 81.034264,105.282166 
	C80.976242,105.021217 81.037056,104.963348 81.253311,105.075195 
	C81.738480,105.388107 81.926872,105.647621 82.034737,105.965599 
	C82.034737,105.965599 81.966469,106.030739 81.931656,106.062576 
z"/>
<path fill="#7C7E90" opacity="1.000000" stroke="none" 
	d="
M80.945160,105.049423 
	C80.569618,105.003937 80.301735,104.819199 80.049606,104.266251 
	C79.988800,104.009087 80.038818,103.961594 80.254944,104.073593 
	C80.739700,104.386650 80.928368,104.645897 81.037056,104.963348 
	C81.037056,104.963348 80.976242,105.021217 80.945160,105.049423 
z"/>
<path fill="#7C7E90" opacity="1.000000" stroke="none" 
	d="
M79.963097,104.032074 
	C79.595879,103.977287 79.331047,103.790688 79.058685,103.261932 
	C78.974464,103.028595 79.015076,102.991180 79.248230,103.089302 
	C79.744545,103.389778 79.930359,103.647835 80.038818,103.961594 
	C80.038818,103.961594 79.988800,104.009087 79.963097,104.032074 
z"/>
<path fill="#7C7E90" opacity="1.000000" stroke="none" 
	d="
M66.924652,90.083046 
	C66.656448,89.897484 66.388237,89.711929 66.034470,89.292053 
	C65.948921,89.057739 65.993027,89.008949 66.231995,89.097290 
	C66.739571,89.386742 66.928207,89.646027 67.008385,89.992981 
	C66.979904,90.022469 66.924652,90.083046 66.924652,90.083046 
z"/>
<path fill="#868795" opacity="1.000000" stroke="none" 
	d="
M95.921631,61.074306 
	C95.605530,60.940666 95.325813,60.772247 94.990753,60.332306 
	C94.935410,60.060787 95.021530,59.978695 95.240135,60.085327 
	C95.731880,60.388378 95.921165,60.646336 96.026581,60.965828 
	C96.026581,60.965828 95.958015,61.039532 95.921631,61.074306 
z"/>
<path fill="#7C7E90" opacity="1.000000" stroke="none" 
	d="
M67.891182,91.117935 
	C67.546951,91.038948 67.280762,90.850044 67.008636,90.317139 
	C66.924652,90.083046 66.979904,90.022469 67.224976,90.104492 
	C67.739365,90.387650 67.927338,90.647606 67.997894,91.003922 
	C67.961830,91.041458 67.891182,91.117935 67.891182,91.117935 
z"/>
<path fill="#7C7E90" opacity="1.000000" stroke="none" 
	d="
M68.864403,92.146500 
	C68.528084,92.057426 68.264679,91.867355 67.982681,91.347107 
	C67.891182,91.117935 67.961830,91.041458 68.215179,91.114563 
	C68.739044,91.388420 68.926598,91.648911 68.989212,92.013214 
	C68.947227,92.057281 68.864403,92.146500 68.864403,92.146500 
z"/>
<path fill="#868795" opacity="1.000000" stroke="none" 
	d="
M94.892052,60.101524 
	C94.506851,60.064011 94.242767,59.876350 93.976578,59.345013 
	C93.896713,59.110741 93.963631,59.039806 94.215729,59.117210 
	C94.737495,59.395870 94.922066,59.657230 95.021530,59.978695 
	C95.021530,59.978695 94.935410,60.060787 94.892052,60.101524 
z"/>
<path fill="#7C7E90" opacity="1.000000" stroke="none" 
	d="
M69.879745,93.113159 
	C69.505684,93.061806 69.248779,92.872215 68.961914,92.368797 
	C68.864403,92.146500 68.947227,92.057281 69.206947,92.123306 
	C69.737823,92.390083 69.924919,92.651093 70.027954,92.972359 
	C70.027954,92.972359 69.929344,93.066429 69.879745,93.113159 
z"/>
<path fill="#868795" opacity="1.000000" stroke="none" 
	d="
M118.080994,59.086189 
	C118.064217,59.470276 117.895721,59.745251 117.387558,60.051041 
	C117.162674,60.152203 117.070763,60.066010 117.131493,59.803841 
	C117.388496,59.268230 117.646515,59.078953 117.966286,58.973839 
	C117.966286,58.973839 118.044067,59.047421 118.080994,59.086189 
z"/>
<path fill="none" opacity="1.000000" stroke="none" 
	d="
M480.000000,114.841583 
	C480.000000,95.699043 479.990082,77.038208 480.005310,58.377399 
	C480.010712,51.791267 482.648560,49.942360 488.542328,52.982494 
	C492.837219,55.197876 496.766388,58.158707 500.701843,61.004009 
	C501.495850,61.578079 501.940247,63.124599 501.946198,64.226013 
	C502.026215,79.054260 502.059204,93.883675 501.913513,108.710938 
	C501.897949,110.295364 501.087799,112.296013 499.951233,113.363777 
	C496.869232,116.259163 493.690674,119.248024 490.045532,121.305267 
	C483.284027,125.121239 478.897430,123.640388 480.000000,114.841583 
z"/>
<path fill="none" opacity="1.000000" stroke="none" 
	d="
M593.034790,63.000000 
	C603.296204,63.019974 606.924072,66.911453 610.826599,81.772011 
	C599.343689,81.772011 587.918762,81.772011 576.504333,81.772011 
	C575.183105,72.169312 582.936218,63.169064 593.034790,63.000000 
z"/>
<path fill="none" opacity="1.000000" stroke="none" 
	d="
M200.115189,65.633530 
	C203.275711,70.777832 206.174438,75.642021 209.747528,81.637871 
	C196.357819,81.637871 184.890320,81.637871 173.050262,81.637871 
	C172.983414,75.299019 175.326309,69.851120 180.152847,66.091179 
	C186.275055,61.321880 193.141144,61.872711 200.115189,65.633530 
z"/>
<path fill="#F9FAFA" opacity="1.000000" stroke="none" 
	d="
M118.395294,78.995346 
	C118.885368,83.360703 118.939598,87.727562 118.604134,92.601730 
	C117.808708,93.739960 117.402985,94.370895 116.528885,95.001160 
	C105.445282,95.000359 94.827705,94.887405 84.217094,95.108727 
	C82.401657,95.146584 80.615990,96.611961 78.527817,97.231728 
	C74.182510,92.714378 70.247177,88.258217 65.992477,84.131317 
	C64.781387,82.956604 62.641640,82.739304 60.927757,82.082962 
	C60.602764,83.717033 60.277763,85.351097 59.952759,86.985168 
	C59.766148,91.689384 59.579536,96.393608 58.931870,101.521736 
	C57.412689,100.793823 56.346046,99.649673 55.299374,98.487526 
	C54.587532,97.697151 53.863140,96.153755 53.213581,96.189934 
	C46.792473,96.547577 40.094604,94.256996 33.779079,98.085876 
	C33.146355,98.425117 32.738823,98.678802 32.331291,98.932487 
	C32.259266,93.923294 32.187244,88.914108 32.212959,83.445526 
	C33.219051,81.944366 34.663429,81.025063 34.934654,79.837761 
	C35.729359,76.358894 37.431034,74.894783 41.153660,74.932793 
	C56.788700,75.092445 72.427277,74.914932 88.061943,75.091698 
	C90.421280,75.118385 92.920158,76.051704 95.090813,77.107674 
	C102.512024,80.717865 110.234802,79.651299 118.395294,78.995346 
z"/>
<path fill="#7C7D7B" opacity="1.000000" stroke="none" 
	d="
M118.012856,58.608658 
	C117.646515,59.078953 117.388496,59.268230 117.085815,59.760445 
	C116.657578,60.078400 116.396164,60.263092 116.084816,60.750050 
	C109.586823,63.965302 103.190697,65.260124 96.396866,61.014229 
	C95.921165,60.646336 95.731880,60.388378 95.240135,60.085327 
	C94.922066,59.657230 94.737495,59.395870 94.251358,59.083931 
	C93.379181,55.713497 92.723465,52.453747 92.393135,49.116325 
	C93.493584,51.038433 93.991371,53.209259 95.098595,55.004131 
	C97.810600,59.400410 101.838318,62.063568 107.108360,61.417282 
	C113.855118,60.589897 117.485977,56.106190 119.198921,49.396965 
	C119.602234,50.312561 120.285988,51.658195 120.064926,52.833668 
	C119.714561,54.696762 118.758957,56.446041 118.012856,58.608658 
z"/>
<path fill="#FCFDFD" opacity="1.000000" stroke="none" 
	d="
M32.239208,99.370667 
	C32.738823,98.678802 33.146355,98.425117 33.778008,98.532013 
	C33.466312,101.372765 32.930500,103.852928 32.394684,106.333084 
	C32.394684,106.333084 32.129402,106.185143 31.996391,106.111603 
	C31.957960,103.961647 32.052544,101.885246 32.239208,99.370667 
z"/>
<path fill="#F5F8F8" opacity="1.000000" stroke="none" 
	d="
M32.396961,106.678642 
	C32.930500,103.852928 33.466312,101.372765 34.003197,98.446472 
	C40.094604,94.256996 46.792473,96.547577 53.213581,96.189934 
	C53.863140,96.153755 54.587532,97.697151 55.299374,98.487526 
	C56.346046,99.649673 57.412689,100.793823 58.854919,101.982979 
	C59.290493,102.764824 59.341969,103.509331 58.956268,104.659805 
	C58.398212,106.065498 58.277340,107.065247 58.150513,108.304893 
	C58.144562,108.544800 58.376076,108.965233 58.376076,108.965233 
	C56.827400,115.090996 52.464317,118.952560 46.684517,119.312897 
	C40.960224,119.669769 36.346027,116.568626 33.997543,110.337357 
	C33.534958,109.502998 33.275139,109.253693 33.015320,109.004387 
	C32.809959,108.344322 32.604599,107.684265 32.396961,106.678642 
z"/>
<path fill="#787977" opacity="1.000000" stroke="none" 
	d="
M60.207481,86.987411 
	C60.277763,85.351097 60.602764,83.717033 60.927757,82.082962 
	C62.641640,82.739304 64.781387,82.956604 65.992477,84.131317 
	C70.247177,88.258217 74.182510,92.714378 78.646973,97.474915 
	C79.839310,98.656471 80.623741,99.408684 81.563934,100.451202 
	C82.489662,101.489883 83.259636,102.238258 84.164963,103.289658 
	C87.947151,107.415298 91.337685,111.529739 95.291931,115.002304 
	C104.751068,123.309166 115.993896,119.358734 118.898056,106.744568 
	C119.125908,106.351913 119.210533,106.191132 119.295151,106.030342 
	C119.697365,107.021851 120.601845,108.115311 120.424454,108.989166 
	C118.553215,118.207230 108.863838,125.961250 95.395790,119.015717 
	C94.563667,118.647423 94.105431,118.326019 93.354111,117.986626 
	C90.580490,115.069199 88.099968,112.169777 85.320305,109.125076 
	C84.921516,108.656303 84.735596,108.393951 84.244743,108.083488 
	C83.923836,107.652603 83.737206,107.391212 83.248474,107.079834 
	C82.925743,106.649780 82.738358,106.389244 82.251663,106.076782 
	C81.926872,105.647621 81.738480,105.388107 81.253311,105.075195 
	C80.928368,104.645897 80.739700,104.386650 80.254944,104.073593 
	C79.930359,103.647835 79.744545,103.389778 79.269722,103.071976 
	C76.602509,99.997490 74.146950,97.038460 71.357574,94.025177 
	C70.921288,93.650146 70.734596,93.389786 70.245819,93.081085 
	C69.924919,92.651093 69.737823,92.390083 69.248932,92.079239 
	C68.926598,91.648911 68.739044,91.388420 68.251236,91.077026 
	C67.927338,90.647606 67.739365,90.387650 67.253448,90.075005 
	C66.928207,89.646027 66.739571,89.386742 66.254837,89.073631 
	C65.928383,88.645111 65.739113,88.386337 65.254837,88.073257 
	C64.923210,87.642487 64.728989,87.382538 64.239647,87.063797 
	C63.482277,86.087059 62.941372,85.227898 62.400475,84.368729 
	C61.937729,85.013824 61.474983,85.658920 60.991955,86.647461 
	C60.801849,86.990494 60.632027,86.990067 60.207481,86.987411 
z"/>
<path fill="#F9FAFA" opacity="1.000000" stroke="none" 
	d="
M58.156467,108.064987 
	C58.277340,107.065247 58.398212,106.065498 58.873421,105.026016 
	C59.222374,105.763405 59.216999,106.540550 58.899948,107.674530 
	C58.588276,108.031372 58.156467,108.064987 58.156467,108.064987 
z"/>
<path fill="#FCFDFD" opacity="1.000000" stroke="none" 
	d="
M33.043373,109.287903 
	C33.275139,109.253693 33.534958,109.502998 33.859245,110.021454 
	C33.639618,110.050873 33.355522,109.811142 33.043373,109.287903 
z"/>
<path fill="#858692" opacity="1.000000" stroke="none" 
	d="
M58.150513,108.304893 
	C58.156467,108.064987 58.588276,108.031372 58.803699,108.053474 
	C58.972977,108.331871 58.860950,108.555092 58.529560,108.855240 
	C58.376076,108.965233 58.144562,108.544800 58.150513,108.304893 
z"/>
<path fill="#FCFDFD" opacity="1.000000" stroke="none" 
	d="
M119.191628,105.575127 
	C119.210533,106.191132 119.125908,106.351913 118.526978,106.636131 
	C117.674194,102.840317 117.335724,98.921074 116.997253,95.001831 
	C117.402985,94.370895 117.808708,93.739960 118.516449,93.059799 
	C118.908333,97.047020 118.998222,101.083466 119.191628,105.575127 
z"/>
<path fill="#F6F8F8" opacity="1.000000" stroke="none" 
	d="
M116.528885,95.001160 
	C117.335724,98.921074 117.674194,102.840317 118.383736,106.867996 
	C115.993896,119.358734 104.751068,123.309166 95.291931,115.002304 
	C91.337685,111.529739 87.947151,107.415298 84.411674,103.074692 
	C83.484741,101.758095 82.446457,100.959488 81.408165,100.160889 
	C80.623741,99.408684 79.839310,98.656471 78.935730,97.661072 
	C80.615990,96.611961 82.401657,95.146584 84.217094,95.108727 
	C94.827705,94.887405 105.445282,95.000359 116.528885,95.001160 
z"/>
<path fill="#F9FAFA" opacity="1.000000" stroke="none" 
	d="
M81.563934,100.451202 
	C82.446457,100.959488 83.484741,101.758095 84.276321,102.771660 
	C83.259636,102.238258 82.489662,101.489883 81.563934,100.451202 
z"/>
</svg>